<?xml version="1.0" standalone="no"?>
<!DOCTYPE svg PUBLIC "-//W3C//DTD SVG 20010904//EN"
 "http://www.w3.org/TR/2001/REC-SVG-20010904/DTD/svg10.dtd">
<svg version="1.0" xmlns="http://www.w3.org/2000/svg"
 width="400.000000pt" height="400.000000pt" viewBox="0 0 400.000000 400.000000"
 preserveAspectRatio="xMidYMid meet">

<g transform="translate(0.000000,400.000000) scale(0.100000,-0.100000)"
fill="#000000" stroke="none">
<path d="M2960 3494 c-54 -15 -121 -53 -171 -98 -105 -93 -153 -260 -115 -401
18 -70 41 -111 93 -166 132 -141 313 -177 480 -94 250 124 306 453 110 649
-109 109 -252 149 -397 110z"/>
<path d="M822 3230 c-18 -11 -41 -34 -52 -52 -20 -32 -20 -53 -20 -984 l0
-951 -71 -28 c-82 -34 -80 -45 3 -16 31 11 59 17 62 14 3 -4 6 -85 6 -181 0
-195 7 -220 74 -261 33 -21 41 -21 1171 -21 1267 0 1181 -5 1231 69 l24 36 0
873 c0 812 -1 874 -17 868 -48 -19 -117 -27 -198 -24 l-90 3 0 -758 c0 -750 0
-757 -20 -757 -1491 -1 -1870 0 -1867 5 1 3 2 65 2 138 l0 133 88 39 c350 155
674 351 1077 652 204 152 687 538 693 553 2 5 -13 13 -32 18 -102 29 -237 149
-293 263 l-30 60 -22 -36 c-11 -20 -21 -39 -21 -42 0 -11 -105 -190 -163 -278
-112 -168 -231 -310 -406 -486 -264 -263 -506 -453 -803 -627 l-88 -52 0 765
c0 421 1 767 3 770 1 3 337 7 747 8 657 2 745 4 741 17 -10 40 -12 219 -3 253
l10 37 -851 0 c-833 0 -853 -1 -885 -20z"/>
</g>
</svg>
