<?xml version="1.0" encoding="UTF-8"?>
<!DOCTYPE svg PUBLIC "-//W3C//DTD SVG 1.1//EN" "http://www.w3.org/Graphics/SVG/1.1/DTD/svg11.dtd">
<svg xmlns="http://www.w3.org/2000/svg" version="1.1" width="253px" height="356px" style="shape-rendering:geometricPrecision; text-rendering:geometricPrecision; image-rendering:optimizeQuality; fill-rule:evenodd; clip-rule:evenodd" xmlns:xlink="http://www.w3.org/1999/xlink">
<g><path style="opacity:1" fill="#f3f2f2" d="M 118.5,-0.5 C 151.833,-0.5 185.167,-0.5 218.5,-0.5C 218.5,3.5 218.5,7.5 218.5,11.5C 226.167,11.5 233.833,11.5 241.5,11.5C 241.5,18.1667 241.5,24.8333 241.5,31.5C 233.833,31.5 226.167,31.5 218.5,31.5C 218.5,37.1667 218.5,42.8333 218.5,48.5C 211.407,41.7367 203.74,35.7367 195.5,30.5C 165.011,12.4177 132.678,8.0844 98.5,17.5C 98.5,15.5 98.5,13.5 98.5,11.5C 105.167,11.5 111.833,11.5 118.5,11.5C 118.5,7.5 118.5,3.5 118.5,-0.5 Z"/></g>
<g><path style="opacity:1" fill="#f7f7f7" d="M -0.5,-0.5 C 25.8333,-0.5 52.1667,-0.5 78.5,-0.5C 78.5,3.5 78.5,7.5 78.5,11.5C 71.8333,11.5 65.1667,11.5 58.5,11.5C 58.5,18.1667 58.5,24.8333 58.5,31.5C 51.8333,31.5 45.1667,31.5 38.5,31.5C 38.5,38.1667 38.5,44.8333 38.5,51.5C 30.8333,51.5 23.1667,51.5 15.5,51.5C 15.5,58.1667 15.5,64.8333 15.5,71.5C 20.0323,71.1818 24.3656,71.5151 28.5,72.5C 21.8534,84.7719 17.1867,97.7719 14.5,111.5C 9.5,111.5 4.5,111.5 -0.5,111.5C -0.5,74.1667 -0.5,36.8333 -0.5,-0.5 Z"/></g>
<g><path style="opacity:1" fill="#fafafa" d="M 218.5,-0.5 C 229.833,-0.5 241.167,-0.5 252.5,-0.5C 252.5,23.5 252.5,47.5 252.5,71.5C 248.833,71.5 245.167,71.5 241.5,71.5C 241.5,64.8333 241.5,58.1667 241.5,51.5C 234.833,51.5 228.167,51.5 221.5,51.5C 220.833,51.1667 220.167,50.8333 219.5,50.5C 219.167,49.8333 218.833,49.1667 218.5,48.5C 218.5,42.8333 218.5,37.1667 218.5,31.5C 226.167,31.5 233.833,31.5 241.5,31.5C 241.5,24.8333 241.5,18.1667 241.5,11.5C 233.833,11.5 226.167,11.5 218.5,11.5C 218.5,7.5 218.5,3.5 218.5,-0.5 Z"/></g>
<g><path style="opacity:1" fill="#d2792f" d="M 195.5,30.5 C 195.631,31.2389 195.464,31.9056 195,32.5C 192.386,30.4436 189.553,28.7769 186.5,27.5C 180.077,24.2475 173.411,21.5808 166.5,19.5C 160.593,17.7851 154.593,16.4518 148.5,15.5C 137.856,14.4578 127.189,14.2911 116.5,15C 112.91,15.3106 109.577,16.144 106.5,17.5C 61.751,28.6998 32.751,56.3665 19.5,100.5C 16.1078,112.129 14.7745,124.129 15.5,136.5C 15.6304,144.615 16.6304,152.615 18.5,160.5C 21.2832,171.068 25.4499,181.068 31,190.5C 31.7401,191.749 31.5735,192.749 30.5,193.5C 30.1667,192.833 29.8333,192.167 29.5,191.5C 19.6682,174.511 14.3348,156.178 13.5,136.5C 13.4272,128.146 13.7605,119.812 14.5,111.5C 17.1867,97.7719 21.8534,84.7719 28.5,72.5C 44.7447,45.2671 68.0781,26.9338 98.5,17.5C 132.678,8.0844 165.011,12.4177 195.5,30.5 Z"/></g>
<g><path style="opacity:1" fill="#e5b878" d="M 148.5,15.5 C 154.593,16.4518 160.593,17.7851 166.5,19.5C 165.08,22.5877 162.747,24.5877 159.5,25.5C 153.807,24.6068 148.14,23.6068 142.5,22.5C 144.5,20.1667 146.5,17.8333 148.5,15.5 Z"/></g>
<g><path style="opacity:1" fill="#eacba0" d="M 148.5,15.5 C 146.5,17.8333 144.5,20.1667 142.5,22.5C 128.277,21.726 114.277,23.0593 100.5,26.5C 103.604,23.8991 106.604,21.0657 109.5,18C 108.552,17.5172 107.552,17.3505 106.5,17.5C 109.577,16.144 112.91,15.3106 116.5,15C 127.189,14.2911 137.856,14.4578 148.5,15.5 Z"/></g>
<g><path style="opacity:1" fill="#e1a95c" d="M 166.5,19.5 C 173.411,21.5808 180.077,24.2475 186.5,27.5C 185.55,30.1149 183.883,32.1149 181.5,33.5C 174.157,30.6104 166.824,27.9437 159.5,25.5C 162.747,24.5877 165.08,22.5877 166.5,19.5 Z"/></g>
<g><path style="opacity:1" fill="#ebd3b6" d="M 106.5,17.5 C 107.552,17.3505 108.552,17.5172 109.5,18C 106.604,21.0657 103.604,23.8991 100.5,26.5C 66.4404,38.2245 42.7738,60.8912 29.5,94.5C 26.2506,96.9032 23.0839,99.5699 20,102.5C 19.5357,101.906 19.369,101.239 19.5,100.5C 32.751,56.3665 61.751,28.6998 106.5,17.5 Z"/></g>
<g><path style="opacity:1" fill="#db923d" d="M 186.5,27.5 C 189.553,28.7769 192.386,30.4436 195,32.5C 195.464,31.9056 195.631,31.2389 195.5,30.5C 203.74,35.7367 211.407,41.7367 218.5,48.5C 218.833,49.1667 219.167,49.8333 219.5,50.5C 219.5,51.1667 219.5,51.8333 219.5,52.5C 215.853,49.1887 212.187,45.8554 208.5,42.5C 206.481,44.1897 204.481,45.8564 202.5,47.5C 195.635,42.5721 188.635,37.9054 181.5,33.5C 183.883,32.1149 185.55,30.1149 186.5,27.5 Z"/></g>
<g><path style="opacity:1" fill="#f1f0f0" d="M 78.5,-0.5 C 91.8333,-0.5 105.167,-0.5 118.5,-0.5C 118.5,3.5 118.5,7.5 118.5,11.5C 111.833,11.5 105.167,11.5 98.5,11.5C 98.5,13.5 98.5,15.5 98.5,17.5C 68.0781,26.9338 44.7447,45.2671 28.5,72.5C 24.3656,71.5151 20.0323,71.1818 15.5,71.5C 15.5,64.8333 15.5,58.1667 15.5,51.5C 23.1667,51.5 30.8333,51.5 38.5,51.5C 38.5,44.8333 38.5,38.1667 38.5,31.5C 45.1667,31.5 51.8333,31.5 58.5,31.5C 58.5,24.8333 58.5,18.1667 58.5,11.5C 65.1667,11.5 71.8333,11.5 78.5,11.5C 78.5,7.5 78.5,3.5 78.5,-0.5 Z"/></g>
<g><path style="opacity:1" fill="#cc7a2a" d="M 163.5,37.5 C 162.5,37.5 161.5,37.5 160.5,37.5C 159.439,43.7146 161.773,48.0479 167.5,50.5C 168.887,46.6138 168.554,42.9472 166.5,39.5C 167.458,39.9528 168.292,40.6195 169,41.5C 169.207,45.0894 169.707,48.5894 170.5,52C 171.167,52.6667 171.833,52.6667 172.5,52C 171.182,48.7312 171.182,45.5645 172.5,42.5C 172.184,45.9783 172.684,49.3117 174,52.5C 175.264,54.607 177.097,55.607 179.5,55.5C 179.75,56.9221 180.583,57.9221 182,58.5C 182.464,57.9056 182.631,57.2389 182.5,56.5C 182.5,54.8333 182.5,53.1667 182.5,51.5C 183.755,46.5489 185.755,46.2156 188.5,50.5C 189.156,52.484 189.822,54.484 190.5,56.5C 190.167,57.1667 189.833,57.8333 189.5,58.5C 187.54,59.723 185.707,61.0564 184,62.5C 183.282,61.5494 182.449,61.3828 181.5,62C 183.939,63.7321 186.273,65.5655 188.5,67.5C 189.386,68.325 189.719,69.325 189.5,70.5C 190.5,70.5 191.5,70.5 192.5,70.5C 192.579,71.9305 192.246,73.2638 191.5,74.5C 189,75.3589 186.667,76.3589 184.5,77.5C 178.536,75.4663 178.202,72.9663 183.5,70C 180.24,70.4818 176.907,70.4818 173.5,70C 172.619,69.2917 171.953,68.4584 171.5,67.5C 172.167,66.1667 173.167,65.1667 174.5,64.5C 176.073,62.7938 178.073,61.6272 180.5,61C 176.685,58.1404 172.352,56.8071 167.5,57C 168.167,56.3333 168.833,55.6667 169.5,55C 166.166,52.9246 162.499,52.0912 158.5,52.5C 158.918,51.7784 159.584,51.2784 160.5,51C 156.843,51.1078 153.177,51.1078 149.5,51C 146.854,50.1959 144.854,48.6959 143.5,46.5C 143.5,44.5 144.5,43.5 146.5,43.5C 148.265,42.5386 150.265,42.2053 152.5,42.5C 155.643,43.1335 158.143,44.8002 160,47.5C 159.663,43.9206 159.496,40.254 159.5,36.5C 161.099,36.2322 162.432,36.5655 163.5,37.5 Z"/></g>
<g><path style="opacity:1" fill="#d4802a" d="M 92.5,32.5 C 91.5254,34.7952 90.1921,36.7952 88.5,38.5C 79.7058,42.3074 72.0392,47.6407 65.5,54.5C 60.8333,57.1667 57.1667,60.8333 54.5,65.5C 52.4131,66.5846 51.0798,68.2512 50.5,70.5C 47.2878,74.7736 43.2878,78.1069 38.5,80.5C 50.7334,58.0442 68.7334,42.0442 92.5,32.5 Z"/></g>
<g><path style="opacity:1" fill="#eacca3" d="M 139.5,61.5 C 136.482,61.3354 133.482,61.502 130.5,62C 107.962,82.0421 85.2951,101.875 62.5,121.5C 62.4203,118.219 63.087,115.219 64.5,112.5C 83.8588,95.4711 103.192,78.4711 122.5,61.5C 128.31,60.2891 133.977,60.2891 139.5,61.5 Z"/></g>
<g><path style="opacity:1" fill="#ecd2b0" d="M 139.5,61.5 C 140.167,61.5 140.833,61.5 141.5,61.5C 115.524,85.8009 88.8577,109.468 61.5,132.5C 61.244,128.731 61.5773,125.064 62.5,121.5C 85.2951,101.875 107.962,82.0421 130.5,62C 133.482,61.502 136.482,61.3354 139.5,61.5 Z"/></g>
<g><path style="opacity:1" fill="#e9c594" d="M 122.5,61.5 C 103.192,78.4711 83.8588,95.4711 64.5,112.5C 65.1667,109.5 65.8333,106.5 66.5,103.5C 73.1313,91.0305 82.1313,80.5305 93.5,72C 99.1036,68.8604 104.77,66.0271 110.5,63.5C 114.5,62.8333 118.5,62.1667 122.5,61.5 Z"/></g>
<g><path style="opacity:1" fill="#e5c59e" d="M 78.5,48.5 C 80.8837,49.4251 81.8837,51.2585 81.5,54C 81.5175,56.3788 80.8509,58.5455 79.5,60.5C 80.2624,60.9106 81.2624,61.0773 82.5,61C 81.8333,61.6667 81.1667,62.3333 80.5,63C 85.8195,61.8248 89.8195,63.6581 92.5,68.5C 86.6717,70.6934 81.8383,69.36 78,64.5C 76.1667,66.3333 74.3333,68.1667 72.5,70C 76.9653,68.5948 80.632,69.7614 83.5,73.5C 82.8075,74.5178 82.1408,75.5178 81.5,76.5C 76.8736,77.2996 73.0403,75.9663 70,72.5C 68.2962,74.3734 66.4628,76.0401 64.5,77.5C 65.7536,74.9066 67.4202,72.5732 69.5,70.5C 72.1456,68.5211 74.4789,66.1878 76.5,63.5C 74.7758,60.05 74.1091,56.3834 74.5,52.5C 76.1667,51.5 77.5,50.1667 78.5,48.5 Z"/></g>
<g><path style="opacity:1" fill="#ecd7bc" d="M 141.5,61.5 C 147.646,62.2164 153.646,63.5497 159.5,65.5C 160.29,66.4013 161.29,67.0679 162.5,67.5C 130.832,96.8298 98.4987,125.496 65.5,153.5C 62.8808,146.873 61.5474,139.873 61.5,132.5C 88.8577,109.468 115.524,85.8009 141.5,61.5 Z"/></g>
<g><path style="opacity:1" fill="#ce701c" d="M 219.5,52.5 C 224.659,58.8169 229.326,65.4835 233.5,72.5C 231.264,73.3891 229.264,74.7224 227.5,76.5C 226.265,75.6602 225.265,74.6602 224.5,73.5C 220.921,68.0195 217.088,62.6862 213,57.5C 209.604,53.9349 206.104,50.6015 202.5,47.5C 204.481,45.8564 206.481,44.1897 208.5,42.5C 212.187,45.8554 215.853,49.1887 219.5,52.5 Z"/></g>
<g><path style="opacity:1" fill="#c67d33" d="M 74.5,52.5 C 74.1091,56.3834 74.7758,60.05 76.5,63.5C 74.4789,66.1878 72.1456,68.5211 69.5,70.5C 67.4202,72.5732 65.7536,74.9066 64.5,77.5C 63.8333,77.8333 63.1667,78.1667 62.5,78.5C 63.3287,75.5314 63.4954,72.5314 63,69.5C 61.3006,64.9382 59.3006,64.6049 57,68.5C 56.3333,71.1667 56.3333,73.8333 57,76.5C 57.3768,77.9423 58.2101,78.9423 59.5,79.5C 60.562,81.0992 60.562,82.7659 59.5,84.5C 58.1154,85.5736 56.9487,86.9069 56,88.5C 57.4143,83.5599 56.081,79.5599 52,76.5C 49.0596,78.2632 47.8929,80.9299 48.5,84.5C 47.3622,81.6965 47.1955,78.6965 48,75.5C 49.0945,73.9221 49.9278,72.2554 50.5,70.5C 51.0798,68.2512 52.4131,66.5846 54.5,65.5C 58.5,62.1667 62.1667,58.5 65.5,54.5C 67.8225,53.1843 70.1558,51.8509 72.5,50.5C 73.7133,50.7472 74.38,51.4138 74.5,52.5 Z"/></g>
<g><path style="opacity:1" fill="#e9d0b1" d="M 62.5,78.5 C 61.609,79.1098 60.609,79.4431 59.5,79.5C 58.2101,78.9423 57.3768,77.9423 57,76.5C 56.3333,73.8333 56.3333,71.1667 57,68.5C 59.3006,64.6049 61.3006,64.9382 63,69.5C 63.4954,72.5314 63.3287,75.5314 62.5,78.5 Z"/></g>
<g><path style="opacity:1" fill="#b26c2f" d="M 92.5,68.5 C 91.1295,70.1412 89.2961,71.1412 87,71.5C 82.9234,69.9652 82.4234,70.7986 85.5,74C 84.5291,75.4813 83.1958,76.3146 81.5,76.5C 82.1408,75.5178 82.8075,74.5178 83.5,73.5C 80.632,69.7614 76.9653,68.5948 72.5,70C 74.3333,68.1667 76.1667,66.3333 78,64.5C 81.8383,69.36 86.6717,70.6934 92.5,68.5 Z"/></g>
<g><path style="opacity:1" fill="#ecd5b6" d="M 162.5,67.5 C 165.032,68.5957 167.365,69.9291 169.5,71.5C 136.098,101.906 102.098,131.573 67.5,160.5C 67.5,159.833 67.1667,159.5 66.5,159.5C 66.1667,157.5 65.8333,155.5 65.5,153.5C 98.4987,125.496 130.832,96.8298 162.5,67.5 Z"/></g>
<g><path style="opacity:1" fill="#cd6f1b" d="M 188.5,50.5 C 189.5,50.8333 190.167,51.5 190.5,52.5C 191.824,56.2491 191.491,59.9158 189.5,63.5C 189.808,64.3081 190.308,64.9747 191,65.5C 191.674,62.0779 192.84,58.9112 194.5,56C 198.063,55.877 200.23,57.7104 201,61.5C 201.711,65.5878 200.544,69.0878 197.5,72C 200.059,75.0391 201.226,74.2057 201,69.5C 201.697,67.4156 202.864,65.7489 204.5,64.5C 209.11,66.6879 210.61,70.3546 209,75.5C 208.086,77.6641 206.919,79.6641 205.5,81.5C 206,82.5 206.5,83.5 207,84.5C 207.21,82.9419 207.71,81.6085 208.5,80.5C 208.543,83.5865 208.71,86.5865 209,89.5C 207.984,88.3659 207.317,88.6992 207,90.5C 204.454,86.9504 200.954,85.6171 196.5,86.5C 182.915,82.3631 183.248,79.0298 197.5,76.5C 197.291,75.914 196.957,75.414 196.5,75C 192.735,76.2941 188.735,77.1274 184.5,77.5C 186.667,76.3589 189,75.3589 191.5,74.5C 192.246,73.2638 192.579,71.9305 192.5,70.5C 191.5,70.5 190.5,70.5 189.5,70.5C 189.719,69.325 189.386,68.325 188.5,67.5C 186.273,65.5655 183.939,63.7321 181.5,62C 182.449,61.3828 183.282,61.5494 184,62.5C 185.707,61.0564 187.54,59.723 189.5,58.5C 189.833,57.8333 190.167,57.1667 190.5,56.5C 189.822,54.484 189.156,52.484 188.5,50.5 Z"/></g>
<g><path style="opacity:1" fill="#e2a95f" d="M 200.5,55.5 C 202.394,56.0476 204.06,57.0476 205.5,58.5C 206.522,58.1445 207.189,57.4778 207.5,56.5C 213.773,61.7478 219.106,67.7478 223.5,74.5C 223.893,76.2838 224.559,77.9505 225.5,79.5C 225.489,81.6859 224.489,82.5192 222.5,82C 220.038,77.5735 217.204,73.4069 214,69.5C 214.899,72.6324 216.399,75.6324 218.5,78.5C 218.043,79.2975 217.376,79.6309 216.5,79.5C 215.952,77.6064 214.952,75.9397 213.5,74.5C 211.062,75.9308 209.396,77.9308 208.5,80.5C 207.71,81.6085 207.21,82.9419 207,84.5C 206.5,83.5 206,82.5 205.5,81.5C 206.919,79.6641 208.086,77.6641 209,75.5C 210.61,70.3546 209.11,66.6879 204.5,64.5C 204.539,63.4168 204.873,62.4168 205.5,61.5C 203.81,59.4807 202.144,57.4807 200.5,55.5 Z"/></g>
<g><path style="opacity:1" fill="#94460d" d="M 142.5,22.5 C 148.14,23.6068 153.807,24.6068 159.5,25.5C 166.824,27.9437 174.157,30.6104 181.5,33.5C 188.635,37.9054 195.635,42.5721 202.5,47.5C 206.104,50.6015 209.604,53.9349 213,57.5C 217.088,62.6862 220.921,68.0195 224.5,73.5C 224.5,74.1667 224.167,74.5 223.5,74.5C 219.106,67.7478 213.773,61.7478 207.5,56.5C 194.29,42.5558 178.29,33.2225 159.5,28.5C 153.132,26.3987 146.465,25.3987 139.5,25.5C 123.375,23.7962 107.708,26.1295 92.5,32.5C 68.7334,42.0442 50.7334,58.0442 38.5,80.5C 30.6037,94.41 26.2704,109.41 25.5,125.5C 25.1765,132.022 25.5098,138.355 26.5,144.5C 28.2766,160.834 33.6099,175.834 42.5,189.5C 45.0134,193.858 48.0134,197.858 51.5,201.5C 54.8333,205.167 58.1667,208.833 61.5,212.5C 61.5,213.167 61.1667,213.5 60.5,213.5C 54.8063,208.473 49.4729,203.14 44.5,197.5C 34.7892,183.084 28.1226,167.417 24.5,150.5C 23.6175,141.533 23.2841,132.533 23.5,123.5C 24.109,113.503 26.109,103.836 29.5,94.5C 42.7738,60.8912 66.4404,38.2245 100.5,26.5C 114.277,23.0593 128.277,21.726 142.5,22.5 Z"/></g>
<g><path style="opacity:1" fill="#b87d49" d="M 125.5,59.5 C 132.881,59.3143 140.214,59.8143 147.5,61C 151.86,61.838 155.86,63.338 159.5,65.5C 153.646,63.5497 147.646,62.2164 141.5,61.5C 140.833,61.5 140.167,61.5 139.5,61.5C 133.977,60.2891 128.31,60.2891 122.5,61.5C 118.5,62.1667 114.5,62.8333 110.5,63.5C 110.5,63.1667 110.5,62.8333 110.5,62.5C 115.473,61.3721 120.473,60.3721 125.5,59.5 Z"/></g>
<g><path style="opacity:1" fill="#e6ba82" d="M 200.5,55.5 C 202.144,57.4807 203.81,59.4807 205.5,61.5C 204.873,62.4168 204.539,63.4168 204.5,64.5C 202.864,65.7489 201.697,67.4156 201,69.5C 201.226,74.2057 200.059,75.0391 197.5,72C 200.544,69.0878 201.711,65.5878 201,61.5C 200.23,57.7104 198.063,55.877 194.5,56C 192.84,58.9112 191.674,62.0779 191,65.5C 190.308,64.9747 189.808,64.3081 189.5,63.5C 191.491,59.9158 191.824,56.2491 190.5,52.5C 191.756,52.5386 192.756,52.0386 193.5,51C 189.844,47.8372 185.844,45.1705 181.5,43C 180.304,42.3457 180.304,41.8457 181.5,41.5C 188.791,44.9676 195.124,49.6343 200.5,55.5 Z"/></g>
<g><path style="opacity:1" fill="#e9d1b2" d="M 69.5,70.5 C 66.4416,69.767 64.7749,67.767 64.5,64.5C 64.786,61.2612 66.1194,58.5945 68.5,56.5C 70.9546,57.9103 71.9546,60.0769 71.5,63C 71.5908,65.7752 70.9241,68.2752 69.5,70.5 Z"/></g>
<g><path style="opacity:1" fill="#d58f41" d="M 158.5,52.5 C 162.499,52.0912 166.166,52.9246 169.5,55C 168.833,55.6667 168.167,56.3333 167.5,57C 172.352,56.8071 176.685,58.1404 180.5,61C 178.073,61.6272 176.073,62.7938 174.5,64.5C 174.44,63.9569 174.107,63.6236 173.5,63.5C 169.558,66.2913 165.891,66.1246 162.5,63C 164.125,59.5494 163.458,58.8828 160.5,61C 158.5,61.6667 156.5,61.6667 154.5,61C 152.994,56.8446 154.327,54.0113 158.5,52.5 Z"/></g>
<g><path style="opacity:1" fill="#b47032" d="M 102.5,59.5 C 101.508,59.3284 100.842,59.6618 100.5,60.5C 97.3955,57.9659 93.7288,56.7992 89.5,57C 90.056,56.6174 90.3893,56.1174 90.5,55.5C 92.9279,54.7878 95.2612,53.7878 97.5,52.5C 98.7953,55.1239 100.462,57.4573 102.5,59.5 Z"/></g>
<g><path style="opacity:1" fill="#e7c69b" d="M 88.5,55.5 C 89.1667,55.5 89.8333,55.5 90.5,55.5C 90.3893,56.1174 90.056,56.6174 89.5,57C 93.7288,56.7992 97.3955,57.9659 100.5,60.5C 100.5,61.5 100.5,62.5 100.5,63.5C 98.5,63.5 96.5,63.5 94.5,63.5C 90.8943,63.0611 88.7277,61.0611 88,57.5C 87.2825,58.4506 86.4491,58.6172 85.5,58C 86.5707,57.1482 87.5707,56.3149 88.5,55.5 Z"/></g>
<g><path style="opacity:1" fill="#e7c194" d="M 65.5,54.5 C 62.1667,58.5 58.5,62.1667 54.5,65.5C 57.1667,60.8333 60.8333,57.1667 65.5,54.5 Z"/></g>
<g><path style="opacity:1" fill="#e7c9a5" d="M 182.5,56.5 C 182.631,57.2389 182.464,57.9056 182,58.5C 180.583,57.9221 179.75,56.9221 179.5,55.5C 180.222,55.0825 180.722,54.4158 181,53.5C 181.232,54.7375 181.732,55.7375 182.5,56.5 Z"/></g>
<g><path style="opacity:1" fill="#e6c394" d="M 98.5,50.5 C 100.379,50.3932 100.712,50.8932 99.5,52C 103.406,51.8483 106.739,53.015 109.5,55.5C 109.539,56.5832 109.873,57.5832 110.5,58.5C 107.914,59.48 105.247,59.8134 102.5,59.5C 100.462,57.4573 98.7953,55.1239 97.5,52.5C 95.2612,53.7878 92.9279,54.7878 90.5,55.5C 92.8633,53.3199 95.53,51.6532 98.5,50.5 Z"/></g>
<g><path style="opacity:1" fill="#ead0ae" d="M 143.5,46.5 C 144.854,48.6959 146.854,50.1959 149.5,51C 153.177,51.1078 156.843,51.1078 160.5,51C 159.584,51.2784 158.918,51.7784 158.5,52.5C 154.327,54.0113 152.994,56.8446 154.5,61C 156.5,61.6667 158.5,61.6667 160.5,61C 163.458,58.8828 164.125,59.5494 162.5,63C 165.891,66.1246 169.558,66.2913 173.5,63.5C 174.107,63.6236 174.44,63.9569 174.5,64.5C 173.167,65.1667 172.167,66.1667 171.5,67.5C 170.305,67.6775 169.138,68.0109 168,68.5C 165.295,67.0609 162.462,66.0609 159.5,65.5C 155.86,63.338 151.86,61.838 147.5,61C 140.214,59.8143 132.881,59.3143 125.5,59.5C 130.805,54.3658 136.305,49.3658 142,44.5C 142.278,45.4158 142.778,46.0825 143.5,46.5 Z"/></g>
<g><path style="opacity:1" fill="#be7e40" d="M 104.5,37.5 C 105.468,39.6074 105.802,41.9407 105.5,44.5C 108.364,43.3232 111.364,42.3232 114.5,41.5C 116.171,41.6682 117.504,42.3349 118.5,43.5C 115.813,43.3359 113.146,43.5026 110.5,44C 108.493,45.7127 106.493,47.3793 104.5,49C 109.823,51.3329 114.823,50.8329 119.5,47.5C 117.442,50.5298 114.442,52.0298 110.5,52C 109.663,53.0113 109.33,54.1779 109.5,55.5C 106.739,53.015 103.406,51.8483 99.5,52C 100.712,50.8932 100.379,50.3932 98.5,50.5C 103.165,47.5443 105.165,43.2109 104.5,37.5 Z"/></g>
<g><path style="opacity:1" fill="#dba063" d="M 92.5,37.5 C 87.5625,40.306 82.5625,43.1393 77.5,46C 79.6192,46.3418 79.9526,47.1751 78.5,48.5C 77.5,50.1667 76.1667,51.5 74.5,52.5C 74.38,51.4138 73.7133,50.7472 72.5,50.5C 70.1558,51.8509 67.8225,53.1843 65.5,54.5C 72.0392,47.6407 79.7058,42.3074 88.5,38.5C 89.7079,37.7659 91.0413,37.4326 92.5,37.5 Z"/></g>
<g><path style="opacity:1" fill="#d8933f" d="M 182.5,51.5 C 182.5,53.1667 182.5,54.8333 182.5,56.5C 181.732,55.7375 181.232,54.7375 181,53.5C 180.722,54.4158 180.222,55.0825 179.5,55.5C 177.097,55.607 175.264,54.607 174,52.5C 172.684,49.3117 172.184,45.9783 172.5,42.5C 172.369,41.7611 172.536,41.0944 173,40.5C 178.047,42.6231 181.213,46.2897 182.5,51.5 Z"/></g>
<g><path style="opacity:1" fill="#e3b065" d="M 146.5,43.5 C 148.857,43.3367 151.19,43.5034 153.5,44C 156.915,45.1433 157.249,46.81 154.5,49C 151.412,49.8467 148.579,49.3467 146,47.5C 145.421,46.0715 145.588,44.7382 146.5,43.5 Z"/></g>
<g><path style="opacity:1" fill="#e7c495" d="M 118.5,43.5 C 119.234,44.7079 119.567,46.0413 119.5,47.5C 114.823,50.8329 109.823,51.3329 104.5,49C 106.493,47.3793 108.493,45.7127 110.5,44C 113.146,43.5026 115.813,43.3359 118.5,43.5 Z"/></g>
<g><path style="opacity:1" fill="#c47c33" d="M 101.5,35.5 C 103.179,35.2852 104.179,35.9519 104.5,37.5C 98.0644,38.4309 95.2311,42.0976 96,48.5C 96.4169,49.756 97.2502,50.4226 98.5,50.5C 95.53,51.6532 92.8633,53.3199 90.5,55.5C 89.8333,55.5 89.1667,55.5 88.5,55.5C 87.5707,56.3149 86.5707,57.1482 85.5,58C 86.4491,58.6172 87.2825,58.4506 88,57.5C 88.7277,61.0611 90.8943,63.0611 94.5,63.5C 95.9516,64.3019 97.6183,64.8019 99.5,65C 97.1009,65.711 94.7676,65.5443 92.5,64.5C 92.9302,65.7117 92.9302,67.045 92.5,68.5C 89.8195,63.6581 85.8195,61.8248 80.5,63C 81.1667,62.3333 81.8333,61.6667 82.5,61C 81.2624,61.0773 80.2624,60.9106 79.5,60.5C 80.8509,58.5455 81.5175,56.3788 81.5,54C 81.8837,51.2585 80.8837,49.4251 78.5,48.5C 79.9526,47.1751 79.6192,46.3418 77.5,46C 82.5625,43.1393 87.5625,40.306 92.5,37.5C 95.5,36.8333 98.5,36.1667 101.5,35.5 Z"/></g>
<g><path style="opacity:1" fill="#e9ceac" d="M 88.5,55.5 C 85.5352,55.27 84.2019,53.6034 84.5,50.5C 84.8023,45.3499 87.3023,43.0166 92,43.5C 93.2548,48.2622 92.0881,52.2622 88.5,55.5 Z"/></g>
<g><path style="opacity:1" fill="#dea253" d="M 163.5,37.5 C 165.027,37.427 166.027,38.0937 166.5,39.5C 168.554,42.9472 168.887,46.6138 167.5,50.5C 161.773,48.0479 159.439,43.7146 160.5,37.5C 161.5,37.5 162.5,37.5 163.5,37.5 Z"/></g>
<g><path style="opacity:1" fill="#e7c9a4" d="M 104.5,37.5 C 105.165,43.2109 103.165,47.5443 98.5,50.5C 97.2502,50.4226 96.4169,49.756 96,48.5C 95.2311,42.0976 98.0644,38.4309 104.5,37.5 Z"/></g>
<g><path style="opacity:1" fill="#e9cca7" d="M 159.5,28.5 C 178.29,33.2225 194.29,42.5558 207.5,56.5C 207.189,57.4778 206.522,58.1445 205.5,58.5C 204.06,57.0476 202.394,56.0476 200.5,55.5C 195.124,49.6343 188.791,44.9676 181.5,41.5C 180.304,41.8457 180.304,42.3457 181.5,43C 185.844,45.1705 189.844,47.8372 193.5,51C 192.756,52.0386 191.756,52.5386 190.5,52.5C 190.167,51.5 189.5,50.8333 188.5,50.5C 185.755,46.2156 183.755,46.5489 182.5,51.5C 181.213,46.2897 178.047,42.6231 173,40.5C 172.536,41.0944 172.369,41.7611 172.5,42.5C 171.182,45.5645 171.182,48.7312 172.5,52C 171.833,52.6667 171.167,52.6667 170.5,52C 169.707,48.5894 169.207,45.0894 169,41.5C 168.292,40.6195 167.458,39.9528 166.5,39.5C 166.027,38.0937 165.027,37.427 163.5,37.5C 162.432,36.5655 161.099,36.2322 159.5,36.5C 159.496,40.254 159.663,43.9206 160,47.5C 158.143,44.8002 155.643,43.1335 152.5,42.5C 151.737,41.7321 150.737,41.2321 149.5,41C 152.666,38.9999 155.332,36.4999 157.5,33.5C 163.219,35.134 168.885,36.634 174.5,38C 168.799,35.6579 163.133,33.3245 157.5,31C 158.381,30.2917 159.047,29.4584 159.5,28.5 Z"/></g>
<g><path style="opacity:1" fill="#e9c593" d="M 157.5,33.5 C 155.332,36.4999 152.666,38.9999 149.5,41C 150.737,41.2321 151.737,41.7321 152.5,42.5C 150.265,42.2053 148.265,42.5386 146.5,43.5C 144.5,43.5 143.5,44.5 143.5,46.5C 142.778,46.0825 142.278,45.4158 142,44.5C 136.305,49.3658 130.805,54.3658 125.5,59.5C 120.473,60.3721 115.473,61.3721 110.5,62.5C 109.243,61.3774 109.576,60.7107 111.5,60.5C 121.947,50.8941 132.614,41.3941 143.5,32C 148.335,31.2225 153.002,31.7225 157.5,33.5 Z"/></g>
<g><path style="opacity:1" fill="#e2ae64" d="M 119.5,47.5 C 119.567,46.0413 119.234,44.7079 118.5,43.5C 117.504,42.3349 116.171,41.6682 114.5,41.5C 111.364,42.3232 108.364,43.3232 105.5,44.5C 105.802,41.9407 105.468,39.6074 104.5,37.5C 104.179,35.9519 103.179,35.2852 101.5,35.5C 112.004,31.2397 123.004,29.7397 134.5,31C 130,34.8333 125.5,38.6667 121,42.5C 120.508,43.549 120.674,44.549 121.5,45.5C 121.145,46.5223 120.478,47.189 119.5,47.5 Z"/></g>
<g><path style="opacity:1" fill="#da9540" d="M 139.5,25.5 C 136.15,25.335 132.817,25.5017 129.5,26C 128.833,26.6667 128.167,27.3333 127.5,28C 119.065,29.1537 110.731,30.8204 102.5,33C 98.9391,34.2321 95.6057,35.7321 92.5,37.5C 91.0413,37.4326 89.7079,37.7659 88.5,38.5C 90.1921,36.7952 91.5254,34.7952 92.5,32.5C 107.708,26.1295 123.375,23.7962 139.5,25.5 Z"/></g>
<g><path style="opacity:1" fill="#e6bd82" d="M 139.5,25.5 C 146.465,25.3987 153.132,26.3987 159.5,28.5C 159.047,29.4584 158.381,30.2917 157.5,31C 163.133,33.3245 168.799,35.6579 174.5,38C 168.885,36.634 163.219,35.134 157.5,33.5C 153.002,31.7225 148.335,31.2225 143.5,32C 132.614,41.3941 121.947,50.8941 111.5,60.5C 111.88,58.302 111.213,56.6354 109.5,55.5C 109.33,54.1779 109.663,53.0113 110.5,52C 114.442,52.0298 117.442,50.5298 119.5,47.5C 120.478,47.189 121.145,46.5223 121.5,45.5C 120.674,44.549 120.508,43.549 121,42.5C 125.5,38.6667 130,34.8333 134.5,31C 123.004,29.7397 112.004,31.2397 101.5,35.5C 98.5,36.1667 95.5,36.8333 92.5,37.5C 95.6057,35.7321 98.9391,34.2321 102.5,33C 110.731,30.8204 119.065,29.1537 127.5,28C 128.167,27.3333 128.833,26.6667 129.5,26C 132.817,25.5017 136.15,25.335 139.5,25.5 Z"/></g>
<g><path style="opacity:1" fill="#f0f0ef" d="M 221.5,51.5 C 228.167,51.5 234.833,51.5 241.5,51.5C 241.5,58.1667 241.5,64.8333 241.5,71.5C 245.167,71.5 248.833,71.5 252.5,71.5C 252.5,104.833 252.5,138.167 252.5,171.5C 249.833,171.5 247.167,171.5 244.5,171.5C 258.44,127.278 250.774,87.2776 221.5,51.5 Z"/></g>
<g><path style="opacity:1" fill="#ebcea7" d="M 169.5,71.5 C 171.332,72.2485 172.999,73.2485 174.5,74.5C 140.156,105.51 105.489,136.176 70.5,166.5C 69.5,164.5 68.5,162.5 67.5,160.5C 102.098,131.573 136.098,101.906 169.5,71.5 Z"/></g>
<g><path style="opacity:1" fill="#e5c8a7" d="M 59.5,84.5 C 59.1667,85.8333 58.8333,87.1667 58.5,88.5C 56.2519,91.328 54.2519,94.328 52.5,97.5C 52.5861,95.323 53.2528,93.323 54.5,91.5C 52.1165,90.1149 50.4499,88.1149 49.5,85.5C 49.5,84.8333 49.1667,84.5 48.5,84.5C 47.8929,80.9299 49.0596,78.2632 52,76.5C 56.081,79.5599 57.4143,83.5599 56,88.5C 56.9487,86.9069 58.1154,85.5736 59.5,84.5 Z"/></g>
<g><path style="opacity:1" fill="#e9c99b" d="M 174.5,74.5 C 176.167,75.5 177.5,76.8333 178.5,78.5C 144.103,109.864 109.103,140.53 73.5,170.5C 72.5116,169.205 71.5116,167.872 70.5,166.5C 105.489,136.176 140.156,105.51 174.5,74.5 Z"/></g>
<g><path style="opacity:1" fill="#e8c9a1" d="M 66.5,84.5 C 63.8501,83.5429 63.1834,81.8762 64.5,79.5C 68.9093,76.5473 72.9093,77.0473 76.5,81C 73.8285,83.9506 70.4952,85.1173 66.5,84.5 Z"/></g>
<g><path style="opacity:1" fill="#cc9762" d="M 64.5,77.5 C 64.5,78.1667 64.5,78.8333 64.5,79.5C 63.1834,81.8762 63.8501,83.5429 66.5,84.5C 64.0021,85.1717 61.6687,85.1717 59.5,84.5C 60.562,82.7659 60.562,81.0992 59.5,79.5C 60.609,79.4431 61.609,79.1098 62.5,78.5C 63.1667,78.1667 63.8333,77.8333 64.5,77.5 Z"/></g>
<g><path style="opacity:1" fill="#e8c38c" d="M 178.5,78.5 C 181.437,79.5821 182.937,81.5821 183,84.5C 148.294,115.897 113.127,146.397 77.5,176C 75.5612,174.568 74.2279,172.735 73.5,170.5C 109.103,140.53 144.103,109.864 178.5,78.5 Z"/></g>
<g><path style="opacity:1" fill="#d68933" d="M 225.5,79.5 C 227.071,81.6351 228.404,83.9684 229.5,86.5C 232.237,89.7255 232.07,92.7255 229,95.5C 228,93.5 227,91.5 226,89.5C 227.693,96.0974 229.527,102.764 231.5,109.5C 231.139,113.482 230.139,117.149 228.5,120.5C 229.092,117.873 229.425,115.206 229.5,112.5C 224.071,112.426 220.904,115.093 220,120.5C 218.369,117.318 217.703,113.985 218,110.5C 218.725,112.158 219.892,112.658 221.5,112C 226.533,108.579 227.533,104.412 224.5,99.5C 220.394,101.727 217.727,105.06 216.5,109.5C 216.221,106.882 215.554,104.382 214.5,102C 220.795,99.5748 222.962,95.0748 221,88.5C 219.062,87.1398 217.396,87.4732 216,89.5C 214.438,91.9573 213.438,94.624 213,97.5C 212.03,95.7262 211.196,93.8928 210.5,92C 212.29,89.8697 214.124,87.703 216,85.5C 216.495,83.5273 216.662,81.5273 216.5,79.5C 217.376,79.6309 218.043,79.2975 218.5,78.5C 216.399,75.6324 214.899,72.6324 214,69.5C 217.204,73.4069 220.038,77.5735 222.5,82C 224.489,82.5192 225.489,81.6859 225.5,79.5 Z"/></g>
<g><path style="opacity:1" fill="#e4b777" d="M 159.5,65.5 C 162.462,66.0609 165.295,67.0609 168,68.5C 169.138,68.0109 170.305,67.6775 171.5,67.5C 171.953,68.4584 172.619,69.2917 173.5,70C 176.907,70.4818 180.24,70.4818 183.5,70C 178.202,72.9663 178.536,75.4663 184.5,77.5C 188.735,77.1274 192.735,76.2941 196.5,75C 196.957,75.414 197.291,75.914 197.5,76.5C 183.248,79.0298 182.915,82.3631 196.5,86.5C 195.29,86.9321 194.29,87.5987 193.5,88.5C 191.726,89.881 190.226,89.5477 189,87.5C 188.536,88.0944 188.369,88.7611 188.5,89.5C 153.468,120.533 118.134,151.2 82.5,181.5C 80.8712,180.375 79.3712,179.041 78,177.5C 78.8931,180.436 80.7264,182.936 83.5,185C 82.552,185.483 81.552,185.649 80.5,185.5C 79.1191,181.542 76.9524,180.876 74,183.5C 73.8996,180.097 73.0663,176.93 71.5,174C 69.6133,173.837 68.1133,174.671 67,176.5C 66.5357,175.906 66.369,175.239 66.5,174.5C 67.7752,171.604 67.7752,168.604 66.5,165.5C 67.2907,163.691 67.2907,161.691 66.5,159.5C 67.1667,159.5 67.5,159.833 67.5,160.5C 68.5,162.5 69.5,164.5 70.5,166.5C 71.5116,167.872 72.5116,169.205 73.5,170.5C 74.2279,172.735 75.5612,174.568 77.5,176C 113.127,146.397 148.294,115.897 183,84.5C 182.937,81.5821 181.437,79.5821 178.5,78.5C 177.5,76.8333 176.167,75.5 174.5,74.5C 172.999,73.2485 171.332,72.2485 169.5,71.5C 167.365,69.9291 165.032,68.5957 162.5,67.5C 161.29,67.0679 160.29,66.4013 159.5,65.5 Z"/></g>
<g><path style="opacity:1" fill="#ab510a" d="M 233.5,72.5 C 238.225,79.9533 241.891,87.9533 244.5,96.5C 243.883,96.3893 243.383,96.056 243,95.5C 241.549,97.4641 239.716,98.7974 237.5,99.5C 235.592,95.6443 233.759,91.6443 232,87.5C 231.329,86.7476 230.496,86.4142 229.5,86.5C 228.404,83.9684 227.071,81.6351 225.5,79.5C 224.559,77.9505 223.893,76.2838 223.5,74.5C 224.167,74.5 224.5,74.1667 224.5,73.5C 225.265,74.6602 226.265,75.6602 227.5,76.5C 229.264,74.7224 231.264,73.3891 233.5,72.5 Z"/></g>
<g><path style="opacity:1" fill="#b75a0d" d="M 216.5,79.5 C 216.662,81.5273 216.495,83.5273 216,85.5C 214.124,87.703 212.29,89.8697 210.5,92C 211.196,93.8928 212.03,95.7262 213,97.5C 213.438,94.624 214.438,91.9573 216,89.5C 217.396,87.4732 219.062,87.1398 221,88.5C 222.962,95.0748 220.795,99.5748 214.5,102C 215.554,104.382 216.221,106.882 216.5,109.5C 216.5,110.167 216.167,110.5 215.5,110.5C 214.978,107.432 214.145,104.432 213,101.5C 208.04,104.434 203.54,103.767 199.5,99.5C 198.139,96.182 199.472,94.8487 203.5,95.5C 207.154,95.6313 209.987,97.298 212,100.5C 211.797,98.0627 210.963,95.7293 209.5,93.5C 205.287,93.4374 200.954,93.2708 196.5,93C 194.859,91.871 193.859,90.371 193.5,88.5C 194.29,87.5987 195.29,86.9321 196.5,86.5C 200.954,85.6171 204.454,86.9504 207,90.5C 207.317,88.6992 207.984,88.3659 209,89.5C 208.71,86.5865 208.543,83.5865 208.5,80.5C 209.396,77.9308 211.062,75.9308 213.5,74.5C 214.952,75.9397 215.952,77.6064 216.5,79.5 Z"/></g>
<g><path style="opacity:1" fill="#b46e2e" d="M 49.5,85.5 C 50.4499,88.1149 52.1165,90.1149 54.5,91.5C 53.2528,93.323 52.5861,95.323 52.5,97.5C 51.7784,97.9175 51.2784,98.5842 51,99.5C 50.7935,96.3771 50.1268,93.3771 49,90.5C 47.7365,88.393 45.9032,87.393 43.5,87.5C 44.5357,85.3123 46.0357,85.3123 48,87.5C 48.2784,86.5842 48.7784,85.9175 49.5,85.5 Z"/></g>
<g><path style="opacity:1" fill="#e4b269" d="M 188.5,89.5 C 191.267,90.6383 191.934,92.4717 190.5,95C 155.677,124.66 121.343,154.826 87.5,185.5C 85.2512,184.92 83.5846,183.587 82.5,181.5C 118.134,151.2 153.468,120.533 188.5,89.5 Z"/></g>
<g><path style="opacity:1" fill="#d7a467" d="M 109.5,55.5 C 111.213,56.6354 111.88,58.302 111.5,60.5C 109.576,60.7107 109.243,61.3774 110.5,62.5C 110.5,62.8333 110.5,63.1667 110.5,63.5C 104.77,66.0271 99.1036,68.8604 93.5,72C 82.1313,80.5305 73.1313,91.0305 66.5,103.5C 66.5983,100.752 65.5983,100.086 63.5,101.5C 63.5106,99.9826 64.1772,98.8159 65.5,98C 64.944,97.6174 64.6107,97.1174 64.5,96.5C 64.0825,95.7784 63.4158,95.2784 62.5,95C 66.7199,94.73 69.7199,92.73 71.5,89C 71.2645,88.1268 70.9312,87.2935 70.5,86.5C 73.6785,85.4108 76.3452,83.5774 78.5,81C 77.5,80 76.5,79 75.5,78C 77.7078,77.8091 79.7078,77.3091 81.5,76.5C 83.1958,76.3146 84.5291,75.4813 85.5,74C 82.4234,70.7986 82.9234,69.9652 87,71.5C 89.2961,71.1412 91.1295,70.1412 92.5,68.5C 92.9302,67.045 92.9302,65.7117 92.5,64.5C 94.7676,65.5443 97.1009,65.711 99.5,65C 97.6183,64.8019 95.9516,64.3019 94.5,63.5C 96.5,63.5 98.5,63.5 100.5,63.5C 100.5,62.5 100.5,61.5 100.5,60.5C 100.842,59.6618 101.508,59.3284 102.5,59.5C 105.247,59.8134 107.914,59.48 110.5,58.5C 109.873,57.5832 109.539,56.5832 109.5,55.5 Z"/></g>
<g><path style="opacity:1" fill="#dc9e50" d="M 50.5,70.5 C 49.9278,72.2554 49.0945,73.9221 48,75.5C 47.1955,78.6965 47.3622,81.6965 48.5,84.5C 49.1667,84.5 49.5,84.8333 49.5,85.5C 48.7784,85.9175 48.2784,86.5842 48,87.5C 46.0357,85.3123 44.5357,85.3123 43.5,87.5C 42.2477,91.6443 40.5811,95.6443 38.5,99.5C 38.3424,102.902 38.6758,106.236 39.5,109.5C 39.6309,110.376 39.2975,111.043 38.5,111.5C 37.2638,110.754 35.9305,110.421 34.5,110.5C 34.5,112.833 34.5,115.167 34.5,117.5C 33.2749,116.848 32.6083,115.681 32.5,114C 33.944,107.067 35.444,100.234 37,93.5C 33.5774,101.523 31.244,109.857 30,118.5C 27.9619,120.598 26.4619,122.931 25.5,125.5C 26.2704,109.41 30.6037,94.41 38.5,80.5C 43.2878,78.1069 47.2878,74.7736 50.5,70.5 Z"/></g>
<g><path style="opacity:1" fill="#b16d30" d="M 81.5,76.5 C 79.7078,77.3091 77.7078,77.8091 75.5,78C 76.5,79 77.5,80 78.5,81C 76.3452,83.5774 73.6785,85.4108 70.5,86.5C 70.9312,87.2935 71.2645,88.1268 71.5,89C 69.7199,92.73 66.7199,94.73 62.5,95C 63.4158,95.2784 64.0825,95.7784 64.5,96.5C 60.1606,95.8461 56.3273,96.8461 53,99.5C 52.5357,98.9056 52.369,98.2389 52.5,97.5C 54.2519,94.328 56.2519,91.328 58.5,88.5C 58.8333,87.1667 59.1667,85.8333 59.5,84.5C 61.6687,85.1717 64.0021,85.1717 66.5,84.5C 70.4952,85.1173 73.8285,83.9506 76.5,81C 72.9093,77.0473 68.9093,76.5473 64.5,79.5C 64.5,78.8333 64.5,78.1667 64.5,77.5C 66.4628,76.0401 68.2962,74.3734 70,72.5C 73.0403,75.9663 76.8736,77.2996 81.5,76.5 Z"/></g>
<g><path style="opacity:1" fill="#e8c89e" d="M 58.5,88.5 C 62.6309,85.6891 66.6309,85.8558 70.5,89C 66.8242,93.7224 62.4908,94.5557 57.5,91.5C 58.1272,90.5832 58.4606,89.5832 58.5,88.5 Z"/></g>
<g><path style="opacity:1" fill="#e8c8a0" d="M 43.5,87.5 C 45.9032,87.393 47.7365,88.393 49,90.5C 50.1268,93.3771 50.7935,96.3771 51,99.5C 51.2784,98.5842 51.7784,97.9175 52.5,97.5C 52.369,98.2389 52.5357,98.9056 53,99.5C 56.3273,96.8461 60.1606,95.8461 64.5,96.5C 64.6107,97.1174 64.944,97.6174 65.5,98C 64.1772,98.8159 63.5106,99.9826 63.5,101.5C 59.3791,103.109 55.5458,102.775 52,100.5C 51.3333,103.167 50.6667,103.167 50,100.5C 46.7731,100.677 44.4398,99.0104 43,95.5C 42.5702,92.8078 42.7369,90.1411 43.5,87.5 Z"/></g>
<g><path style="opacity:1" fill="#e1a655" d="M 193.5,88.5 C 193.859,90.371 194.859,91.871 196.5,93C 200.954,93.2708 205.287,93.4374 209.5,93.5C 210.963,95.7293 211.797,98.0627 212,100.5C 209.987,97.298 207.154,95.6313 203.5,95.5C 199.472,94.8487 198.139,96.182 199.5,99.5C 200.292,100.967 200.292,102.3 199.5,103.5C 198,101.167 196.5,98.8333 195,96.5C 194.805,97.8193 194.972,99.1526 195.5,100.5C 195.586,101.496 195.252,102.329 194.5,103C 161.5,132 128.5,161 95.5,190C 91.8552,190.342 89.1885,188.842 87.5,185.5C 121.343,154.826 155.677,124.66 190.5,95C 191.934,92.4717 191.267,90.6383 188.5,89.5C 188.369,88.7611 188.536,88.0944 189,87.5C 190.226,89.5477 191.726,89.881 193.5,88.5 Z"/></g>
<g><path style="opacity:1" fill="#e8cba5" d="M 38.5,99.5 C 42.5971,99.469 45.0971,101.469 46,105.5C 46.4966,107.81 46.6633,110.143 46.5,112.5C 43.7939,112.312 41.4605,111.312 39.5,109.5C 38.6758,106.236 38.3424,102.902 38.5,99.5 Z"/></g>
<g><path style="opacity:1" fill="#de9e48" d="M 195.5,100.5 C 197.423,102.201 197.757,104.201 196.5,106.5C 163.791,134.529 131.458,163.029 99.5,192C 98.552,192.483 97.552,192.649 96.5,192.5C 92.9417,191.129 92.6084,191.796 95.5,194.5C 95.3764,195.107 95.0431,195.44 94.5,195.5C 93.3121,194.316 92.1455,194.316 91,195.5C 90.1667,198.5 89.3333,201.5 88.5,204.5C 88.4124,200.62 88.2458,196.62 88,192.5C 85.6667,187.167 83.3333,187.167 81,192.5C 80.5034,190.19 80.3367,187.857 80.5,185.5C 81.552,185.649 82.552,185.483 83.5,185C 80.7264,182.936 78.8931,180.436 78,177.5C 79.3712,179.041 80.8712,180.375 82.5,181.5C 83.5846,183.587 85.2512,184.92 87.5,185.5C 89.1885,188.842 91.8552,190.342 95.5,190C 128.5,161 161.5,132 194.5,103C 195.252,102.329 195.586,101.496 195.5,100.5 Z"/></g>
<g><path style="opacity:1" fill="#c56615" d="M 229.5,86.5 C 230.496,86.4142 231.329,86.7476 232,87.5C 233.759,91.6443 235.592,95.6443 237.5,99.5C 238.933,106.096 239.933,112.763 240.5,119.5C 239.833,126.833 239.167,134.167 238.5,141.5C 238.666,137.486 238.499,133.486 238,129.5C 237.333,130.167 236.667,130.833 236,131.5C 234.97,127.227 234.303,122.894 234,118.5C 233.689,122.09 232.856,125.423 231.5,128.5C 231.5,127.167 231.5,125.833 231.5,124.5C 229.265,124.795 227.265,124.461 225.5,123.5C 226.167,122.167 227.167,121.167 228.5,120.5C 230.139,117.149 231.139,113.482 231.5,109.5C 229.527,102.764 227.693,96.0974 226,89.5C 227,91.5 228,93.5 229,95.5C 232.07,92.7255 232.237,89.7255 229.5,86.5 Z"/></g>
<g><path style="opacity:1" fill="#dc953d" d="M 199.5,99.5 C 203.54,103.767 208.04,104.434 213,101.5C 214.145,104.432 214.978,107.432 215.5,110.5C 212.795,106.819 209.129,105.319 204.5,106C 203.124,108.54 203.79,110.54 206.5,112C 209.77,112.995 213.103,113.828 216.5,114.5C 217.544,116.768 217.711,119.101 217,121.5C 214.78,117.308 211.28,115.641 206.5,116.5C 206.15,119.453 207.15,121.787 209.5,123.5C 207.685,122.37 205.685,121.704 203.5,121.5C 203.096,115.553 201.596,109.887 199,104.5C 198.82,106.488 198.986,108.488 199.5,110.5C 167.694,138.801 135.694,166.968 103.5,195C 100.758,195.295 98.425,194.462 96.5,192.5C 97.552,192.649 98.552,192.483 99.5,192C 131.458,163.029 163.791,134.529 196.5,106.5C 197.757,104.201 197.423,102.201 195.5,100.5C 194.972,99.1526 194.805,97.8193 195,96.5C 196.5,98.8333 198,101.167 199.5,103.5C 200.292,102.3 200.292,100.967 199.5,99.5 Z"/></g>
<g><path style="opacity:1" fill="#934405" d="M 228.5,120.5 C 227.167,121.167 226.167,122.167 225.5,123.5C 223.565,124.15 221.565,124.483 219.5,124.5C 219.666,129.511 219.499,134.511 219,139.5C 218.667,133.833 218.333,128.167 218,122.5C 216.246,124.25 214.079,124.917 211.5,124.5C 211.158,123.662 210.492,123.328 209.5,123.5C 207.15,121.787 206.15,119.453 206.5,116.5C 211.28,115.641 214.78,117.308 217,121.5C 217.711,119.101 217.544,116.768 216.5,114.5C 213.103,113.828 209.77,112.995 206.5,112C 203.79,110.54 203.124,108.54 204.5,106C 209.129,105.319 212.795,106.819 215.5,110.5C 216.167,110.5 216.5,110.167 216.5,109.5C 217.727,105.06 220.394,101.727 224.5,99.5C 227.533,104.412 226.533,108.579 221.5,112C 219.892,112.658 218.725,112.158 218,110.5C 217.703,113.985 218.369,117.318 220,120.5C 220.904,115.093 224.071,112.426 229.5,112.5C 229.425,115.206 229.092,117.873 228.5,120.5 Z"/></g>
<g><path style="opacity:1" fill="#8e4106" d="M 244.5,96.5 C 247.564,105.213 249.231,114.213 249.5,123.5C 248.71,122.391 248.21,121.058 248,119.5C 245.963,121.706 243.797,123.706 241.5,125.5C 241.483,123.435 241.15,121.435 240.5,119.5C 239.933,112.763 238.933,106.096 237.5,99.5C 239.716,98.7974 241.549,97.4641 243,95.5C 243.383,96.056 243.883,96.3893 244.5,96.5 Z"/></g>
<g><path style="opacity:1" fill="#e9ca9f" d="M 29.5,94.5 C 26.109,103.836 24.109,113.503 23.5,123.5C 23.4371,129.27 20.7704,133.603 15.5,136.5C 14.7745,124.129 16.1078,112.129 19.5,100.5C 19.369,101.239 19.5357,101.906 20,102.5C 23.0839,99.5699 26.2506,96.9032 29.5,94.5 Z"/></g>
<g><path style="opacity:1" fill="#eceae9" d="M -0.5,111.5 C 4.5,111.5 9.5,111.5 14.5,111.5C 13.7605,119.812 13.4272,128.146 13.5,136.5C 12.5489,135.081 12.2155,133.415 12.5,131.5C 8.16667,131.5 3.83333,131.5 -0.5,131.5C -0.5,124.833 -0.5,118.167 -0.5,111.5 Z"/></g>
<g><path style="opacity:1" fill="#d98c33" d="M 199.5,110.5 C 200.309,112.028 200.976,113.694 201.5,115.5C 170.668,142.83 139.668,169.997 108.5,197C 106.5,197 104.5,197 102.5,197C 105.05,198.442 107.716,199.608 110.5,200.5C 112.006,202.401 113.673,204.068 115.5,205.5C 113.883,204.962 112.216,204.629 110.5,204.5C 110.337,206.857 110.503,209.19 111,211.5C 111.377,212.942 112.21,213.942 113.5,214.5C 112.432,215.434 111.099,215.768 109.5,215.5C 108.791,214.596 107.791,214.263 106.5,214.5C 108.894,208.447 107.394,203.781 102,200.5C 98.5546,204.655 99.0546,208.488 103.5,212C 102.552,212.483 101.552,212.649 100.5,212.5C 98.7703,211.621 97.437,210.288 96.5,208.5C 98.3548,203.642 97.6881,199.308 94.5,195.5C 95.0431,195.44 95.3764,195.107 95.5,194.5C 92.6084,191.796 92.9417,191.129 96.5,192.5C 98.425,194.462 100.758,195.295 103.5,195C 135.694,166.968 167.694,138.801 199.5,110.5 Z"/></g>
<g><path style="opacity:1" fill="#b56e34" d="M 51.5,116.5 C 49.1093,118.615 47.7759,121.281 47.5,124.5C 51.0765,124.795 54.2432,123.795 57,121.5C 57.1667,121.833 57.3333,122.167 57.5,122.5C 56.3349,123.584 55.0016,124.417 53.5,125C 55.1341,125.494 56.8008,125.66 58.5,125.5C 58.5,126.833 58.5,128.167 58.5,129.5C 57.9744,131.23 56.9744,132.564 55.5,133.5C 56.4552,131.254 57.1218,128.921 57.5,126.5C 52.6046,126.187 49.2713,128.187 47.5,132.5C 46.2392,126.621 46.4059,120.621 48,114.5C 48.3333,115.5 48.6667,116.5 49,117.5C 49.6708,116.748 50.5041,116.414 51.5,116.5 Z"/></g>
<g><path style="opacity:1" fill="#d5812a" d="M 201.5,115.5 C 202.45,118.068 202.45,120.568 201.5,123C 172.03,147.971 143.03,173.471 114.5,199.5C 116.743,200.474 119.076,200.808 121.5,200.5C 124.695,202.03 128.195,202.696 132,202.5C 134.69,202.497 137.19,202.164 139.5,201.5C 145.608,201.14 151.608,200.14 157.5,198.5C 157.167,199.167 156.833,199.833 156.5,200.5C 146.616,202.577 136.616,203.911 126.5,204.5C 126.291,205.086 125.957,205.586 125.5,206C 127.141,207.129 128.141,208.629 128.5,210.5C 127.038,209.542 125.705,208.376 124.5,207C 123.207,206.51 121.873,206.343 120.5,206.5C 119.58,211.219 121.247,214.552 125.5,216.5C 123.636,217.793 121.636,217.793 119.5,216.5C 118.95,214.343 118.283,212.343 117.5,210.5C 117.107,208.716 116.441,207.05 115.5,205.5C 113.673,204.068 112.006,202.401 110.5,200.5C 107.716,199.608 105.05,198.442 102.5,197C 104.5,197 106.5,197 108.5,197C 139.668,169.997 170.668,142.83 201.5,115.5 Z"/></g>
<g><path style="opacity:1" fill="#d37b24" d="M 209.5,123.5 C 210.492,123.328 211.158,123.662 211.5,124.5C 210.081,125.451 208.415,125.784 206.5,125.5C 206.338,127.527 206.505,129.527 207,131.5C 207.383,132.056 207.883,132.389 208.5,132.5C 209.5,132.833 210.167,133.5 210.5,134.5C 209.432,135.434 208.099,135.768 206.5,135.5C 206.5,137.167 206.5,138.833 206.5,140.5C 205.71,139.391 205.21,138.058 205,136.5C 203.473,147.413 200.14,157.746 195,167.5C 194.346,168.696 193.846,168.696 193.5,167.5C 196.962,161.913 199.296,155.913 200.5,149.5C 202.579,143.1 203.412,136.434 203,129.5C 175.962,153.376 148.795,177.042 121.5,200.5C 119.076,200.808 116.743,200.474 114.5,199.5C 143.03,173.471 172.03,147.971 201.5,123C 202.45,120.568 202.45,118.068 201.5,115.5C 200.976,113.694 200.309,112.028 199.5,110.5C 198.986,108.488 198.82,106.488 199,104.5C 201.596,109.887 203.096,115.553 203.5,121.5C 205.685,121.704 207.685,122.37 209.5,123.5 Z"/></g>
<g><path style="opacity:1" fill="#e8c597" d="M 66.5,103.5 C 62.2222,111.877 60.2222,120.877 60.5,130.5C 59.8333,130.167 59.1667,129.833 58.5,129.5C 58.5,128.167 58.5,126.833 58.5,125.5C 56.8008,125.66 55.1341,125.494 53.5,125C 55.0016,124.417 56.3349,123.584 57.5,122.5C 57.3333,122.167 57.1667,121.833 57,121.5C 54.2432,123.795 51.0765,124.795 47.5,124.5C 47.7759,121.281 49.1093,118.615 51.5,116.5C 53.8333,116.5 56.1667,116.5 58.5,116.5C 59.8598,119.338 59.5264,118.672 57.5,114.5C 58.1925,113.482 58.8592,112.482 59.5,111.5C 61.539,110.089 62.539,108.089 62.5,105.5C 61.325,105.719 60.325,105.386 59.5,104.5C 61.1836,103.85 62.5169,102.85 63.5,101.5C 65.5983,100.086 66.5983,100.752 66.5,103.5 Z"/></g>
<g><path style="opacity:1" fill="#e5ba7e" d="M 55.5,133.5 C 53.1175,135.046 50.4509,135.713 47.5,135.5C 47.5,134.5 47.5,133.5 47.5,132.5C 49.2713,128.187 52.6046,126.187 57.5,126.5C 57.1218,128.921 56.4552,131.254 55.5,133.5 Z"/></g>
<g><path style="opacity:1" fill="#e5bb83" d="M 34.5,117.5 C 34.933,120.195 36.2663,122.362 38.5,124C 33.4355,122.397 31.6021,124.23 33,129.5C 33.2896,131.044 33.9563,132.377 35,133.5C 34.7446,130.918 34.578,128.252 34.5,125.5C 40.7679,126.302 44.1012,129.969 44.5,136.5C 39.1667,136.833 39.1667,137.167 44.5,137.5C 44.7135,139.144 44.3802,140.644 43.5,142C 44.6687,144.007 45.3354,146.173 45.5,148.5C 38.6436,148.643 34.9769,145.309 34.5,138.5C 36.1992,138.66 37.8659,138.494 39.5,138C 37.5273,137.505 35.5273,137.338 33.5,137.5C 33.5,138.5 33.5,139.5 33.5,140.5C 32.71,139.391 32.21,138.058 32,136.5C 31.3333,140.167 31.3333,143.833 32,147.5C 33.9353,157.468 36.7686,167.135 40.5,176.5C 33.7339,163.783 29.9006,150.117 29,135.5C 26.7492,138.017 25.9159,141.017 26.5,144.5C 25.5098,138.355 25.1765,132.022 25.5,125.5C 26.4619,122.931 27.9619,120.598 30,118.5C 31.244,109.857 33.5774,101.523 37,93.5C 35.444,100.234 33.944,107.067 32.5,114C 32.6083,115.681 33.2749,116.848 34.5,117.5 Z"/></g>
<g><path style="opacity:1" fill="#823b02" d="M 210.5,134.5 C 210.167,133.5 209.5,132.833 208.5,132.5C 207.85,130.565 207.517,128.565 207.5,126.5C 214.017,126.018 217.35,129.018 217.5,135.5C 215.097,135.552 212.764,135.219 210.5,134.5 Z"/></g>
<g><path style="opacity:1" fill="#b1723e" d="M 66.5,103.5 C 65.8333,106.5 65.1667,109.5 64.5,112.5C 63.087,115.219 62.4203,118.219 62.5,121.5C 61.5773,125.064 61.244,128.731 61.5,132.5C 61.5474,139.873 62.8808,146.873 65.5,153.5C 65.8333,155.5 66.1667,157.5 66.5,159.5C 61.9619,150.481 59.9619,140.814 60.5,130.5C 60.2222,120.877 62.2222,111.877 66.5,103.5 Z"/></g>
<g><path style="opacity:1" fill="#723102" d="M 249.5,123.5 C 249.842,133.055 249.175,142.389 247.5,151.5C 247.304,149.354 246.304,149.188 244.5,151C 243.002,153.664 241.002,155.83 238.5,157.5C 238.5,156.833 238.5,156.167 238.5,155.5C 241.105,145.808 242.105,135.808 241.5,125.5C 243.797,123.706 245.963,121.706 248,119.5C 248.21,121.058 248.71,122.391 249.5,123.5 Z"/></g>
<g><path style="opacity:1" fill="#ce904b" d="M 225.5,123.5 C 227.265,124.461 229.265,124.795 231.5,124.5C 231.5,125.833 231.5,127.167 231.5,128.5C 231.276,132.562 229.276,135.395 225.5,137C 227.473,137.495 229.473,137.662 231.5,137.5C 231.829,140.228 231.163,142.562 229.5,144.5C 229.833,142.5 230.167,140.5 230.5,138.5C 224.638,138.189 220.804,140.856 219,146.5C 218.581,142.148 217.914,141.815 217,145.5C 216.053,140.044 212.886,137.377 207.5,137.5C 207.5,139.167 207.5,140.833 207.5,142.5C 206.662,142.158 206.328,141.492 206.5,140.5C 206.5,138.833 206.5,137.167 206.5,135.5C 208.099,135.768 209.432,135.434 210.5,134.5C 212.764,135.219 215.097,135.552 217.5,135.5C 217.35,129.018 214.017,126.018 207.5,126.5C 207.517,128.565 207.85,130.565 208.5,132.5C 207.883,132.389 207.383,132.056 207,131.5C 206.505,129.527 206.338,127.527 206.5,125.5C 208.415,125.784 210.081,125.451 211.5,124.5C 214.079,124.917 216.246,124.25 218,122.5C 218.333,128.167 218.667,133.833 219,139.5C 219.499,134.511 219.666,129.511 219.5,124.5C 221.565,124.483 223.565,124.15 225.5,123.5 Z"/></g>
<g><path style="opacity:1" fill="#743201" d="M 226.5,125.5 C 227.833,125.5 229.167,125.5 230.5,125.5C 230.643,132.356 227.309,136.023 220.5,136.5C 220.261,131.505 222.261,127.838 226.5,125.5 Z"/></g>
<g><path style="opacity:1" fill="#cc6a15" d="M 200.5,149.5 C 200.631,148.761 200.464,148.094 200,147.5C 179,165.377 158.833,183.377 139.5,201.5C 137.19,202.164 134.69,202.497 132,202.5C 128.195,202.696 124.695,202.03 121.5,200.5C 148.795,177.042 175.962,153.376 203,129.5C 203.412,136.434 202.579,143.1 200.5,149.5 Z"/></g>
<g><path style="opacity:1" fill="#e4b87b" d="M 23.5,123.5 C 23.2841,132.533 23.6175,141.533 24.5,150.5C 25.3695,155.617 23.3695,158.951 18.5,160.5C 16.6304,152.615 15.6304,144.615 15.5,136.5C 20.7704,133.603 23.4371,129.27 23.5,123.5 Z"/></g>
<g><path style="opacity:1" fill="#773706" d="M 229.5,144.5 C 226.564,147.631 222.897,149.131 218.5,149C 217.594,151.447 216.761,153.947 216,156.5C 215.956,153.525 216.123,150.525 216.5,147.5C 212.779,147.109 209.779,145.442 207.5,142.5C 207.5,140.833 207.5,139.167 207.5,137.5C 212.886,137.377 216.053,140.044 217,145.5C 217.914,141.815 218.581,142.148 219,146.5C 220.804,140.856 224.638,138.189 230.5,138.5C 230.167,140.5 229.833,142.5 229.5,144.5 Z"/></g>
<g><path style="opacity:1" fill="#e9d0b1" d="M 58.5,129.5 C 59.1667,129.833 59.8333,130.167 60.5,130.5C 59.9619,140.814 61.9619,150.481 66.5,159.5C 67.2907,161.691 67.2907,163.691 66.5,165.5C 66.44,164.957 66.1067,164.624 65.5,164.5C 64.3801,165.833 63.0468,166.333 61.5,166C 64.2149,162.224 64.0482,158.724 61,155.5C 59.8615,155.989 58.6948,156.322 57.5,156.5C 60.1643,153.347 60.831,149.847 59.5,146C 57.8739,146.195 56.2072,146.195 54.5,146C 56.3757,145.082 57.3757,143.582 57.5,141.5C 58.4614,139.735 58.7947,137.735 58.5,135.5C 57.1266,135.657 55.7932,135.49 54.5,135C 55.056,134.617 55.3893,134.117 55.5,133.5C 56.9744,132.564 57.9744,131.23 58.5,129.5 Z"/></g>
<g><path style="opacity:1" fill="#ad5209" d="M 238.5,141.5 C 238.795,143.735 238.461,145.735 237.5,147.5C 236.504,147.414 235.671,147.748 235,148.5C 234.667,144.5 234.333,140.5 234,136.5C 232.99,144.226 231.657,151.892 230,159.5C 228.667,160.833 227.333,162.167 226,163.5C 223.063,162.183 220.23,162.183 217.5,163.5C 216.624,163.631 215.957,163.298 215.5,162.5C 220.296,162.234 224.462,160.567 228,157.5C 230.659,153.392 229.826,150.559 225.5,149C 227.751,148.252 229.084,146.752 229.5,144.5C 231.163,142.562 231.829,140.228 231.5,137.5C 229.473,137.662 227.473,137.495 225.5,137C 229.276,135.395 231.276,132.562 231.5,128.5C 232.856,125.423 233.689,122.09 234,118.5C 234.303,122.894 234.97,127.227 236,131.5C 236.667,130.833 237.333,130.167 238,129.5C 238.499,133.486 238.666,137.486 238.5,141.5 Z"/></g>
<g><path style="opacity:1" fill="#e4b362" d="M 240.5,119.5 C 241.15,121.435 241.483,123.435 241.5,125.5C 242.105,135.808 241.105,145.808 238.5,155.5C 238.631,154.761 238.464,154.094 238,153.5C 237.768,154.737 237.268,155.737 236.5,156.5C 236.963,153.518 237.296,150.518 237.5,147.5C 238.461,145.735 238.795,143.735 238.5,141.5C 239.167,134.167 239.833,126.833 240.5,119.5 Z"/></g>
<g><path style="opacity:1" fill="#dca45d" d="M 57.5,141.5 C 57.3757,143.582 56.3757,145.082 54.5,146C 56.2072,146.195 57.8739,146.195 59.5,146C 60.831,149.847 60.1643,153.347 57.5,156.5C 55.7619,156.172 54.0952,156.839 52.5,158.5C 50.1619,155.315 49.4953,151.815 50.5,148C 47.5934,144.122 48.26,140.789 52.5,138C 54.1341,137.506 55.8008,137.34 57.5,137.5C 57.5,138.833 57.5,140.167 57.5,141.5 Z"/></g>
<g><path style="opacity:1" fill="#f3f3f3" d="M -0.5,131.5 C 3.83333,131.5 8.16667,131.5 12.5,131.5C 12.2155,133.415 12.5489,135.081 13.5,136.5C 14.3348,156.178 19.6682,174.511 29.5,191.5C 24.8333,191.5 20.1667,191.5 15.5,191.5C 15.5,198.167 15.5,204.833 15.5,211.5C 23.1667,211.5 30.8333,211.5 38.5,211.5C 38.5,218.167 38.5,224.833 38.5,231.5C 45.1667,231.5 51.8333,231.5 58.5,231.5C 58.5,238.167 58.5,244.833 58.5,251.5C 51.8333,251.5 45.1667,251.5 38.5,251.5C 38.5,258.167 38.5,264.833 38.5,271.5C 45.1667,271.5 51.8333,271.5 58.5,271.5C 58.5,278.167 58.5,284.833 58.5,291.5C 51.8333,291.5 45.1667,291.5 38.5,291.5C 38.5,298.167 38.5,304.833 38.5,311.5C 30.8333,311.5 23.1667,311.5 15.5,311.5C 15.5,318.167 15.5,324.833 15.5,331.5C 15.5,338.167 15.5,344.833 15.5,351.5C 10.1667,351.5 4.83333,351.5 -0.5,351.5C -0.5,278.167 -0.5,204.833 -0.5,131.5 Z"/></g>
<g><path style="opacity:1" fill="#c17f43" d="M 43.5,87.5 C 42.7369,90.1411 42.5702,92.8078 43,95.5C 44.4398,99.0104 46.7731,100.677 50,100.5C 50.6667,103.167 51.3333,103.167 52,100.5C 55.5458,102.775 59.3791,103.109 63.5,101.5C 62.5169,102.85 61.1836,103.85 59.5,104.5C 60.325,105.386 61.325,105.719 62.5,105.5C 62.539,108.089 61.539,110.089 59.5,111.5C 58.8592,112.482 58.1925,113.482 57.5,114.5C 59.5264,118.672 59.8598,119.338 58.5,116.5C 56.1667,116.5 53.8333,116.5 51.5,116.5C 50.5041,116.414 49.6708,116.748 49,117.5C 48.6667,116.5 48.3333,115.5 48,114.5C 46.4059,120.621 46.2392,126.621 47.5,132.5C 47.5,133.5 47.5,134.5 47.5,135.5C 50.4509,135.713 53.1175,135.046 55.5,133.5C 55.3893,134.117 55.056,134.617 54.5,135C 55.7932,135.49 57.1266,135.657 58.5,135.5C 58.7947,137.735 58.4614,139.735 57.5,141.5C 57.5,140.167 57.5,138.833 57.5,137.5C 55.8008,137.34 54.1341,137.506 52.5,138C 48.26,140.789 47.5934,144.122 50.5,148C 49.4953,151.815 50.1619,155.315 52.5,158.5C 53.5782,161.43 54.0782,164.43 54,167.5C 53.3333,166.167 52.6667,164.833 52,163.5C 51.6667,164.5 51.3333,165.5 51,166.5C 47.6788,164.385 44.1788,163.051 40.5,162.5C 43.681,162.742 46.681,162.742 49.5,162.5C 46.1033,161.828 42.7699,160.995 39.5,160C 37.8588,158.871 36.8588,157.371 36.5,155.5C 33.5409,151.894 34.5409,149.727 39.5,149C 35.7241,147.395 33.7241,144.562 33.5,140.5C 33.5,139.5 33.5,138.5 33.5,137.5C 35.5273,137.338 37.5273,137.505 39.5,138C 37.8659,138.494 36.1992,138.66 34.5,138.5C 34.9769,145.309 38.6436,148.643 45.5,148.5C 45.3354,146.173 44.6687,144.007 43.5,142C 44.3802,140.644 44.7135,139.144 44.5,137.5C 39.1667,137.167 39.1667,136.833 44.5,136.5C 44.1012,129.969 40.7679,126.302 34.5,125.5C 34.578,128.252 34.7446,130.918 35,133.5C 33.9563,132.377 33.2896,131.044 33,129.5C 31.6021,124.23 33.4355,122.397 38.5,124C 36.2663,122.362 34.933,120.195 34.5,117.5C 34.5,115.167 34.5,112.833 34.5,110.5C 35.9305,110.421 37.2638,110.754 38.5,111.5C 39.2975,111.043 39.6309,110.376 39.5,109.5C 41.4605,111.312 43.7939,112.312 46.5,112.5C 46.6633,110.143 46.4966,107.81 46,105.5C 45.0971,101.469 42.5971,99.469 38.5,99.5C 40.5811,95.6443 42.2477,91.6443 43.5,87.5 Z"/></g>
<g><path style="opacity:1" fill="#e4b36e" d="M 36.5,155.5 C 36.5,154.167 36.5,152.833 36.5,151.5C 42.3254,150.745 46.3254,153.078 48.5,158.5C 47.4406,159.696 46.1073,160.363 44.5,160.5C 41.3075,159.634 38.6408,157.968 36.5,155.5 Z"/></g>
<g><path style="opacity:1" fill="#e9ca9f" d="M 35.5,112.5 C 42.2077,113.558 45.2077,117.558 44.5,124.5C 37.7434,123.401 34.7434,119.401 35.5,112.5 Z"/></g>
<g><path style="opacity:1" fill="#e9c697" d="M 59.5,111.5 C 56.3652,113.023 53.0318,113.69 49.5,113.5C 49.4443,110.439 50.7776,108.272 53.5,107C 56.1667,106.333 58.8333,106.333 61.5,107C 60.4178,108.33 59.7512,109.83 59.5,111.5 Z"/></g>
<g><path style="opacity:1" fill="#be5d0e" d="M 206.5,140.5 C 206.328,141.492 206.662,142.158 207.5,142.5C 207.511,144.017 208.177,145.184 209.5,146C 207.925,145.621 206.425,145.788 205,146.5C 204.211,148.712 204.378,150.712 205.5,152.5C 205.5,153.5 205.5,154.5 205.5,155.5C 204.178,155.33 203.011,155.663 202,156.5C 201.333,159.167 201.333,161.833 202,164.5C 202.383,165.056 202.883,165.389 203.5,165.5C 203.158,166.338 202.492,166.672 201.5,166.5C 200.745,164.534 199.579,164.2 198,165.5C 196.588,168.936 196.088,172.269 196.5,175.5C 195.391,175.443 194.391,175.11 193.5,174.5C 191.606,177.127 189.939,179.794 188.5,182.5C 188.279,181.265 187.612,180.265 186.5,179.5C 187.5,178.167 188.5,176.833 189.5,175.5C 188.753,175.264 187.92,174.93 187,174.5C 180.145,180.357 173.645,186.524 167.5,193C 164.051,194.749 160.717,196.583 157.5,198.5C 151.608,200.14 145.608,201.14 139.5,201.5C 158.833,183.377 179,165.377 200,147.5C 200.464,148.094 200.631,148.761 200.5,149.5C 199.296,155.913 196.962,161.913 193.5,167.5C 193.846,168.696 194.346,168.696 195,167.5C 200.14,157.746 203.473,147.413 205,136.5C 205.21,138.058 205.71,139.391 206.5,140.5 Z"/></g>
<g><path style="opacity:1" fill="#e9ceab" d="M 33.5,140.5 C 33.7241,144.562 35.7241,147.395 39.5,149C 34.5409,149.727 33.5409,151.894 36.5,155.5C 36.8588,157.371 37.8588,158.871 39.5,160C 42.7699,160.995 46.1033,161.828 49.5,162.5C 46.681,162.742 43.681,162.742 40.5,162.5C 39.3054,162.866 38.6387,163.699 38.5,165C 41.1437,171.825 45.8104,173.992 52.5,171.5C 53.4778,171.811 54.1445,172.478 54.5,173.5C 50.6161,173.994 46.9495,174.994 43.5,176.5C 44.4671,178.79 45.8004,180.79 47.5,182.5C 47.4827,184.028 46.816,184.528 45.5,184C 44.1819,181.176 42.5152,178.676 40.5,176.5C 36.7686,167.135 33.9353,157.468 32,147.5C 31.3333,143.833 31.3333,140.167 32,136.5C 32.21,138.058 32.71,139.391 33.5,140.5 Z"/></g>
<g><path style="opacity:1" fill="#d79548" d="M 66.5,165.5 C 67.7752,168.604 67.7752,171.604 66.5,174.5C 64.4012,175.37 64.0679,176.703 65.5,178.5C 64.9017,179.795 64.4017,181.128 64,182.5C 62.3831,181.464 62.2164,180.297 63.5,179C 61.9391,178.682 60.7724,177.849 60,176.5C 59.6256,174.102 59.6256,171.769 60,169.5C 58.9563,170.623 58.2896,171.956 58,173.5C 57.3333,172.167 56.6667,170.833 56,169.5C 55.6667,170.167 55.3333,170.833 55,171.5C 54.0228,170.226 53.1894,170.226 52.5,171.5C 45.8104,173.992 41.1437,171.825 38.5,165C 38.6387,163.699 39.3054,162.866 40.5,162.5C 44.1788,163.051 47.6788,164.385 51,166.5C 51.3333,165.5 51.6667,164.5 52,163.5C 52.6667,164.833 53.3333,166.167 54,167.5C 54.0782,164.43 53.5782,161.43 52.5,158.5C 54.0952,156.839 55.7619,156.172 57.5,156.5C 58.6948,156.322 59.8615,155.989 61,155.5C 64.0482,158.724 64.2149,162.224 61.5,166C 63.0468,166.333 64.3801,165.833 65.5,164.5C 66.1067,164.624 66.44,164.957 66.5,165.5 Z"/></g>
<g><path style="opacity:1" fill="#642c05" d="M 217.5,163.5 C 219.833,163.5 222.167,163.5 224.5,163.5C 224.657,164.873 224.49,166.207 224,167.5C 222.624,168.705 221.458,170.038 220.5,171.5C 209.618,172.302 208.618,169.636 217.5,163.5 Z"/></g>
<g><path style="opacity:1" fill="#eacfae" d="M 40.5,176.5 C 42.4792,180.779 44.1459,185.112 45.5,189.5C 44.5,189.5 43.5,189.5 42.5,189.5C 33.6099,175.834 28.2766,160.834 26.5,144.5C 25.9159,141.017 26.7492,138.017 29,135.5C 29.9006,150.117 33.7339,163.783 40.5,176.5 Z"/></g>
<g><path style="opacity:1" fill="#622b05" d="M 219.5,175.5 C 219.039,178.303 217.705,180.637 215.5,182.5C 212.022,182.816 208.688,182.316 205.5,181C 208.758,175.994 213.424,174.161 219.5,175.5 Z"/></g>
<g><path style="opacity:1" fill="#e4cbb0" d="M 219.5,50.5 C 220.167,50.8333 220.833,51.1667 221.5,51.5C 250.774,87.2776 258.44,127.278 244.5,171.5C 238.747,188.036 229.747,202.369 217.5,214.5C 209.474,222.688 200.474,229.688 190.5,235.5C 189.614,236.325 189.281,237.325 189.5,238.5C 188.778,238.082 188.278,237.416 188,236.5C 185.686,237.733 183.519,239.067 181.5,240.5C 180.391,240.557 179.391,240.89 178.5,241.5C 164.75,247.184 150.416,250.184 135.5,250.5C 134.5,250.5 133.5,250.5 132.5,250.5C 122.386,250.592 112.386,249.592 102.5,247.5C 97.1705,245.72 91.8372,243.72 86.5,241.5C 85.1667,240.833 83.8333,240.167 82.5,239.5C 80.2543,238.545 77.921,237.878 75.5,237.5C 67.8055,232.317 60.4722,226.651 53.5,220.5C 54.1667,220.5 54.8333,220.5 55.5,220.5C 59.5,223.5 63.5,226.5 67.5,229.5C 72.3682,232.434 77.3682,235.1 82.5,237.5C 88.1092,240.596 94.1092,242.93 100.5,244.5C 114.23,248.039 128.23,249.372 142.5,248.5C 190.176,242.647 223.343,217.647 242,173.5C 244.558,166.33 246.391,158.997 247.5,151.5C 249.175,142.389 249.842,133.055 249.5,123.5C 249.231,114.213 247.564,105.213 244.5,96.5C 241.891,87.9533 238.225,79.9533 233.5,72.5C 229.326,65.4835 224.659,58.8169 219.5,52.5C 219.5,51.8333 219.5,51.1667 219.5,50.5 Z"/></g>
<g><path style="opacity:1" fill="#de9e4b" d="M 24.5,150.5 C 28.1226,167.417 34.7892,183.084 44.5,197.5C 42.6729,198.932 41.0063,200.599 39.5,202.5C 43.7995,209.463 49.1328,215.463 55.5,220.5C 54.8333,220.5 54.1667,220.5 53.5,220.5C 44.1835,212.841 36.5168,203.841 30.5,193.5C 31.5735,192.749 31.7401,191.749 31,190.5C 25.4499,181.068 21.2832,171.068 18.5,160.5C 23.3695,158.951 25.3695,155.617 24.5,150.5 Z"/></g>
<g><path style="opacity:1" fill="#6a3006" d="M 193.5,174.5 C 194.391,175.11 195.391,175.443 196.5,175.5C 196.461,176.756 196.961,177.756 198,178.5C 198.085,182.272 198.252,185.939 198.5,189.5C 197.542,189.953 196.708,190.619 196,191.5C 196.924,189.191 196.091,187.524 193.5,186.5C 192.167,182.5 192.167,178.5 193.5,174.5 Z"/></g>
<g><path style="opacity:1" fill="#d07e2c" d="M 66.5,174.5 C 66.369,175.239 66.5357,175.906 67,176.5C 68.1133,174.671 69.6133,173.837 71.5,174C 73.0663,176.93 73.8996,180.097 74,183.5C 76.9524,180.876 79.1191,181.542 80.5,185.5C 79.7463,188.023 79.0796,190.689 78.5,193.5C 78.8457,194.696 79.3457,194.696 80,193.5C 80.7975,195.259 80.6309,196.926 79.5,198.5C 77.8421,196.677 76.0088,195.01 74,193.5C 73.6667,191.167 73.3333,188.833 73,186.5C 72.7638,188.764 72.2638,190.931 71.5,193C 71.8333,193.333 72.1667,193.667 72.5,194C 71.552,194.483 70.552,194.649 69.5,194.5C 68.8783,193.373 68.045,192.373 67,191.5C 61.077,195.856 55.7437,195.189 51,189.5C 50.5498,186.936 51.7164,185.436 54.5,185C 56.7695,184.242 58.9361,184.409 61,185.5C 61.6172,184.551 61.4506,183.718 60.5,183C 56.1615,183.746 51.8282,183.579 47.5,182.5C 45.8004,180.79 44.4671,178.79 43.5,176.5C 46.9495,174.994 50.6161,173.994 54.5,173.5C 54.1445,172.478 53.4778,171.811 52.5,171.5C 53.1894,170.226 54.0228,170.226 55,171.5C 55.3333,170.833 55.6667,170.167 56,169.5C 56.6667,170.833 57.3333,172.167 58,173.5C 58.2896,171.956 58.9563,170.623 60,169.5C 59.6256,171.769 59.6256,174.102 60,176.5C 60.7724,177.849 61.9391,178.682 63.5,179C 62.2164,180.297 62.3831,181.464 64,182.5C 64.4017,181.128 64.9017,179.795 65.5,178.5C 64.0679,176.703 64.4012,175.37 66.5,174.5 Z"/></g>
<g><path style="opacity:1" fill="#bc8653" d="M 207.5,142.5 C 209.779,145.442 212.779,147.109 216.5,147.5C 216.123,150.525 215.956,153.525 216,156.5C 216.761,153.947 217.594,151.447 218.5,149C 222.897,149.131 226.564,147.631 229.5,144.5C 229.084,146.752 227.751,148.252 225.5,149C 229.826,150.559 230.659,153.392 228,157.5C 224.462,160.567 220.296,162.234 215.5,162.5C 215.957,163.298 216.624,163.631 217.5,163.5C 208.618,169.636 209.618,172.302 220.5,171.5C 217.311,172.166 213.977,172.833 210.5,173.5C 213.642,174.167 216.642,174.834 219.5,175.5C 213.424,174.161 208.758,175.994 205.5,181C 208.688,182.316 212.022,182.816 215.5,182.5C 214.158,183.793 212.491,184.626 210.5,185C 211.416,185.278 212.082,185.778 212.5,186.5C 207.183,184.696 202.516,185.696 198.5,189.5C 198.252,185.939 198.085,182.272 198,178.5C 196.961,177.756 196.461,176.756 196.5,175.5C 196.088,172.269 196.588,168.936 198,165.5C 199.579,164.2 200.745,164.534 201.5,166.5C 202.492,166.672 203.158,166.338 203.5,165.5C 202.883,165.389 202.383,165.056 202,164.5C 201.333,161.833 201.333,159.167 202,156.5C 203.011,155.663 204.178,155.33 205.5,155.5C 205.5,154.5 205.5,153.5 205.5,152.5C 204.378,150.712 204.211,148.712 205,146.5C 206.425,145.788 207.925,145.621 209.5,146C 208.177,145.184 207.511,144.017 207.5,142.5 Z"/></g>
<g><path style="opacity:1" fill="#6c3003" d="M 201.5,166.5 C 204.861,170.396 205.361,174.729 203,179.5C 198.906,176.337 197.406,172.337 198.5,167.5C 199.325,166.614 200.325,166.281 201.5,166.5 Z"/></g>
<g><path style="opacity:1" fill="#6e2f02" d="M 203.5,165.5 C 202.735,162.904 202.401,160.237 202.5,157.5C 208.951,158.247 211.285,161.914 209.5,168.5C 207.053,168.385 205.053,167.385 203.5,165.5 Z"/></g>
<g><path style="opacity:1" fill="#662c03" d="M 221.5,151.5 C 223.833,151.5 226.167,151.5 228.5,151.5C 227.858,156.808 224.858,159.808 219.5,160.5C 218,160.547 217,159.881 216.5,158.5C 217.804,155.87 219.47,153.537 221.5,151.5 Z"/></g>
<g><path style="opacity:1" fill="#723102" d="M 205.5,152.5 C 205.5,150.833 205.5,149.167 205.5,147.5C 212.587,147.992 214.921,151.659 212.5,158.5C 209.507,157.167 207.173,155.167 205.5,152.5 Z"/></g>
<g><path style="opacity:1" fill="#984407" d="M 237.5,147.5 C 237.296,150.518 236.963,153.518 236.5,156.5C 225.938,195.782 201.272,221.615 162.5,234C 156.914,235.617 151.247,236.784 145.5,237.5C 144.167,237.5 142.833,237.5 141.5,237.5C 137.818,237.665 134.152,237.499 130.5,237C 131.167,236.333 131.833,235.667 132.5,235C 127.453,234.662 122.453,233.995 117.5,233C 123.833,232.667 130.167,232.333 136.5,232C 137.71,230.961 138.71,229.794 139.5,228.5C 141.099,228.232 142.432,228.566 143.5,229.5C 143.411,230.661 145.078,230.994 148.5,230.5C 148.077,228.219 148.744,226.552 150.5,225.5C 151.768,227.387 153.601,228.387 156,228.5C 157.825,228.057 159.658,227.723 161.5,227.5C 161.88,225.302 161.213,223.635 159.5,222.5C 159.084,220.248 157.751,218.748 155.5,218C 157.077,216.07 158.41,216.237 159.5,218.5C 161.167,219.5 162.5,220.833 163.5,222.5C 166.7,223.788 170.033,223.788 173.5,222.5C 174.229,220.405 173.563,218.572 171.5,217C 172.094,216.536 172.761,216.369 173.5,216.5C 174.492,218.026 175.992,218.693 178,218.5C 180.221,218.607 182.054,217.94 183.5,216.5C 185.814,215.821 186.147,214.488 184.5,212.5C 187.786,211.958 190.786,210.958 193.5,209.5C 194.583,209.461 195.583,209.127 196.5,208.5C 198.162,205.176 200.495,202.51 203.5,200.5C 207.484,198.402 207.151,196.735 202.5,195.5C 207.792,194.849 211.792,192.182 214.5,187.5C 214.043,186.702 213.376,186.369 212.5,186.5C 212.082,185.778 211.416,185.278 210.5,185C 212.491,184.626 214.158,183.793 215.5,182.5C 217.705,180.637 219.039,178.303 219.5,175.5C 216.642,174.834 213.642,174.167 210.5,173.5C 213.977,172.833 217.311,172.166 220.5,171.5C 221.458,170.038 222.624,168.705 224,167.5C 224.49,166.207 224.657,164.873 224.5,163.5C 222.167,163.5 219.833,163.5 217.5,163.5C 220.23,162.183 223.063,162.183 226,163.5C 227.333,162.167 228.667,160.833 230,159.5C 231.657,151.892 232.99,144.226 234,136.5C 234.333,140.5 234.667,144.5 235,148.5C 235.671,147.748 236.504,147.414 237.5,147.5 Z"/></g>
<g><path style="opacity:1" fill="#6a2f05" d="M 188.5,182.5 C 191.539,186.065 192.205,190.065 190.5,194.5C 189.542,194.953 188.708,195.619 188,196.5C 185.416,193.664 184.249,190.331 184.5,186.5C 185.473,184.861 186.806,183.527 188.5,182.5 Z"/></g>
<g><path style="opacity:1" fill="#c8925d" d="M 193.5,174.5 C 192.167,178.5 192.167,182.5 193.5,186.5C 192.193,188.223 192.193,190.057 193.5,192C 192.627,193.045 191.627,193.878 190.5,194.5C 192.205,190.065 191.539,186.065 188.5,182.5C 189.939,179.794 191.606,177.127 193.5,174.5 Z"/></g>
<g><path style="opacity:1" fill="#612a04" d="M 212.5,186.5 C 212.548,189.292 211.215,191.125 208.5,192C 205.833,192.667 203.167,192.667 200.5,192C 199.619,191.292 198.953,190.458 198.5,189.5C 202.516,185.696 207.183,184.696 212.5,186.5 Z"/></g>
<g><path style="opacity:1" fill="#f5f5f5" d="M 244.5,171.5 C 247.167,171.5 249.833,171.5 252.5,171.5C 252.5,232.833 252.5,294.167 252.5,355.5C 241.167,355.5 229.833,355.5 218.5,355.5C 218.5,354.167 218.5,352.833 218.5,351.5C 211.833,351.5 205.167,351.5 198.5,351.5C 198.5,344.833 198.5,338.167 198.5,331.5C 203.167,331.5 207.833,331.5 212.5,331.5C 213.767,332.087 214.767,332.087 215.5,331.5C 209.829,311.488 204.162,291.488 198.5,271.5C 205.167,271.5 211.833,271.5 218.5,271.5C 218.5,264.833 218.5,258.167 218.5,251.5C 211.833,251.5 205.167,251.5 198.5,251.5C 198.5,244.833 198.5,238.167 198.5,231.5C 205.167,231.5 211.833,231.5 218.5,231.5C 218.822,225.642 218.489,219.975 217.5,214.5C 229.747,202.369 238.747,188.036 244.5,171.5 Z"/></g>
<g><path style="opacity:1" fill="#bb6824" d="M 188.5,182.5 C 186.806,183.527 185.473,184.861 184.5,186.5C 183.71,187.609 183.21,188.942 183,190.5C 181.959,188.689 180.793,188.355 179.5,189.5C 178.974,191.23 177.974,192.564 176.5,193.5C 175.698,194.952 175.198,196.618 175,198.5C 174.722,197.584 174.222,196.918 173.5,196.5C 172.883,196.389 172.383,196.056 172,195.5C 170.629,197.041 169.129,198.375 167.5,199.5C 166.71,200.609 166.21,201.942 166,203.5C 165.722,202.584 165.222,201.918 164.5,201.5C 163.609,200.89 162.609,200.557 161.5,200.5C 159.248,200.916 157.748,202.249 157,204.5C 156.821,207.553 156.321,210.553 155.5,213.5C 155.712,209.915 155.379,206.248 154.5,202.5C 155.5,202.167 156.167,201.5 156.5,200.5C 156.833,199.833 157.167,199.167 157.5,198.5C 160.717,196.583 164.051,194.749 167.5,193C 173.645,186.524 180.145,180.357 187,174.5C 187.92,174.93 188.753,175.264 189.5,175.5C 188.5,176.833 187.5,178.167 186.5,179.5C 187.612,180.265 188.279,181.265 188.5,182.5 Z"/></g>
<g><path style="opacity:1" fill="#6c3107" d="M 179.5,189.5 C 184.345,193.247 184.679,197.414 180.5,202C 182.619,202.342 182.953,203.175 181.5,204.5C 179.112,203.781 177.612,202.115 177,199.5C 176.505,197.527 176.338,195.527 176.5,193.5C 177.974,192.564 178.974,191.23 179.5,189.5 Z"/></g>
<g><path style="opacity:1" fill="#e6bb82" d="M 40.5,176.5 C 42.5152,178.676 44.1819,181.176 45.5,184C 46.816,184.528 47.4827,184.028 47.5,182.5C 51.8282,183.579 56.1615,183.746 60.5,183C 61.4506,183.718 61.6172,184.551 61,185.5C 58.9361,184.409 56.7695,184.242 54.5,185C 51.7164,185.436 50.5498,186.936 51,189.5C 55.7437,195.189 61.077,195.856 67,191.5C 68.045,192.373 68.8783,193.373 69.5,194.5C 65.1809,193.799 61.5142,194.966 58.5,198C 60.5166,200.861 63.1833,202.695 66.5,203.5C 65.6857,205.273 64.3524,205.773 62.5,205C 59.6667,202.167 56.8333,199.333 54,196.5C 54.0187,198.107 54.1854,199.774 54.5,201.5C 53.5,201.5 52.5,201.5 51.5,201.5C 48.0134,197.858 45.0134,193.858 42.5,189.5C 43.5,189.5 44.5,189.5 45.5,189.5C 44.1459,185.112 42.4792,180.779 40.5,176.5 Z"/></g>
<g><path style="opacity:1" fill="#622b05" d="M 202.5,195.5 C 204.401,196.935 204.734,198.602 203.5,200.5C 199.904,202.722 196.237,202.889 192.5,201C 189.846,198.928 190.18,197.261 193.5,196C 196.482,195.502 199.482,195.335 202.5,195.5 Z"/></g>
<g><path style="opacity:1" fill="#c99d75" d="M 202.5,195.5 C 207.151,196.735 207.484,198.402 203.5,200.5C 204.734,198.602 204.401,196.935 202.5,195.5 Z"/></g>
<g><path style="opacity:1" fill="#6e3003" d="M 173.5,196.5 C 175.369,201.225 174.369,205.225 170.5,208.5C 169.504,208.586 168.671,208.252 168,207.5C 167.503,204.854 167.336,202.187 167.5,199.5C 169.129,198.375 170.629,197.041 172,195.5C 172.383,196.056 172.883,196.389 173.5,196.5 Z"/></g>
<g><path style="opacity:1" fill="#b88151" d="M 184.5,186.5 C 184.249,190.331 185.416,193.664 188,196.5C 188.708,195.619 189.542,194.953 190.5,194.5C 191.627,193.878 192.627,193.045 193.5,192C 192.193,190.057 192.193,188.223 193.5,186.5C 196.091,187.524 196.924,189.191 196,191.5C 196.708,190.619 197.542,189.953 198.5,189.5C 198.953,190.458 199.619,191.292 200.5,192C 203.167,192.667 205.833,192.667 208.5,192C 211.215,191.125 212.548,189.292 212.5,186.5C 213.376,186.369 214.043,186.702 214.5,187.5C 211.792,192.182 207.792,194.849 202.5,195.5C 199.482,195.335 196.482,195.502 193.5,196C 190.18,197.261 189.846,198.928 192.5,201C 196.237,202.889 199.904,202.722 203.5,200.5C 200.495,202.51 198.162,205.176 196.5,208.5C 195.583,209.127 194.583,209.461 193.5,209.5C 195.957,207.001 195.291,205.168 191.5,204C 188.112,203.341 184.779,203.508 181.5,204.5C 182.953,203.175 182.619,202.342 180.5,202C 184.679,197.414 184.345,193.247 179.5,189.5C 180.793,188.355 181.959,188.689 183,190.5C 183.21,188.942 183.71,187.609 184.5,186.5 Z"/></g>
<g><path style="opacity:1" fill="#c96b18" d="M 80.5,185.5 C 80.3367,187.857 80.5034,190.19 81,192.5C 83.3333,187.167 85.6667,187.167 88,192.5C 88.2458,196.62 88.4124,200.62 88.5,204.5C 89.3333,201.5 90.1667,198.5 91,195.5C 92.1455,194.316 93.3121,194.316 94.5,195.5C 97.6881,199.308 98.3548,203.642 96.5,208.5C 97.437,210.288 98.7703,211.621 100.5,212.5C 98.323,212.414 96.323,211.747 94.5,210.5C 93.1498,216.365 89.1498,218.531 82.5,217C 81.0577,216.623 80.0577,215.79 79.5,214.5C 81.978,212.197 84.6447,210.031 87.5,208C 87.1667,207.667 86.8333,207.333 86.5,207C 84.0245,207.747 81.6911,209.081 79.5,211C 75.4948,212.098 71.9948,211.265 69,208.5C 68.3333,207.5 68.3333,206.5 69,205.5C 71.7948,203.354 74.9614,202.187 78.5,202C 77.646,200.978 76.646,200.145 75.5,199.5C 73.1019,202.199 70.1019,203.533 66.5,203.5C 63.1833,202.695 60.5166,200.861 58.5,198C 61.5142,194.966 65.1809,193.799 69.5,194.5C 70.552,194.649 71.552,194.483 72.5,194C 72.1667,193.667 71.8333,193.333 71.5,193C 72.2638,190.931 72.7638,188.764 73,186.5C 73.3333,188.833 73.6667,191.167 74,193.5C 76.0088,195.01 77.8421,196.677 79.5,198.5C 80.6309,196.926 80.7975,195.259 80,193.5C 79.3457,194.696 78.8457,194.696 78.5,193.5C 79.0796,190.689 79.7463,188.023 80.5,185.5 Z"/></g>
<g><path style="opacity:1" fill="#612a04" d="M 193.5,209.5 C 188.287,211.558 183.954,210.391 180.5,206C 181.056,205.617 181.389,205.117 181.5,204.5C 184.779,203.508 188.112,203.341 191.5,204C 195.291,205.168 195.957,207.001 193.5,209.5 Z"/></g>
<g><path style="opacity:1" fill="#ad5309" d="M 109.5,215.5 C 108.022,215.238 106.689,215.571 105.5,216.5C 102.407,222.615 97.74,224.115 91.5,221C 93.9836,216.919 97.6503,214.585 102.5,214C 101.584,213.722 100.918,213.222 100.5,212.5C 101.552,212.649 102.552,212.483 103.5,212C 99.0546,208.488 98.5546,204.655 102,200.5C 107.394,203.781 108.894,208.447 106.5,214.5C 107.791,214.263 108.791,214.596 109.5,215.5 Z"/></g>
<g><path style="opacity:1" fill="#a04905" d="M 115.5,205.5 C 116.441,207.05 117.107,208.716 117.5,210.5C 117.5,212.167 117.5,213.833 117.5,215.5C 116.041,215.567 114.708,215.234 113.5,214.5C 112.21,213.942 111.377,212.942 111,211.5C 110.503,209.19 110.337,206.857 110.5,204.5C 112.216,204.629 113.883,204.962 115.5,205.5 Z"/></g>
<g><path style="opacity:1" fill="#632b04" d="M 247.5,151.5 C 246.391,158.997 244.558,166.33 242,173.5C 223.343,217.647 190.176,242.647 142.5,248.5C 145.146,245.188 148.146,242.188 151.5,239.5C 196.615,229.388 225.615,202.055 238.5,157.5C 241.002,155.83 243.002,153.664 244.5,151C 246.304,149.188 247.304,149.354 247.5,151.5 Z"/></g>
<g><path style="opacity:1" fill="#c18d5e" d="M 176.5,193.5 C 176.338,195.527 176.505,197.527 177,199.5C 177.612,202.115 179.112,203.781 181.5,204.5C 181.389,205.117 181.056,205.617 180.5,206C 183.954,210.391 188.287,211.558 193.5,209.5C 190.786,210.958 187.786,211.958 184.5,212.5C 186.147,214.488 185.814,215.821 183.5,216.5C 184.37,214.968 184.036,213.468 182.5,212C 178.954,210.826 175.287,210.16 171.5,210C 178.073,206.278 177.74,205.778 170.5,208.5C 174.369,205.225 175.369,201.225 173.5,196.5C 174.222,196.918 174.722,197.584 175,198.5C 175.198,196.618 175.698,194.952 176.5,193.5 Z"/></g>
<g><path style="opacity:1" fill="#de9c49" d="M 66.5,203.5 C 70.1019,203.533 73.1019,202.199 75.5,199.5C 76.646,200.145 77.646,200.978 78.5,202C 74.9614,202.187 71.7948,203.354 69,205.5C 68.3333,206.5 68.3333,207.5 69,208.5C 71.9948,211.265 75.4948,212.098 79.5,211C 81.6911,209.081 84.0245,207.747 86.5,207C 86.8333,207.333 87.1667,207.667 87.5,208C 84.6447,210.031 81.978,212.197 79.5,214.5C 78.8485,215.091 78.1818,215.757 77.5,216.5C 75.5029,215.253 73.5029,214.419 71.5,214C 73.731,215.61 75.731,217.443 77.5,219.5C 76.3112,220.429 74.9778,220.762 73.5,220.5C 69.4714,217.823 65.4714,215.156 61.5,212.5C 58.1667,208.833 54.8333,205.167 51.5,201.5C 52.5,201.5 53.5,201.5 54.5,201.5C 54.1854,199.774 54.0187,198.107 54,196.5C 56.8333,199.333 59.6667,202.167 62.5,205C 64.3524,205.773 65.6857,205.273 66.5,203.5 Z"/></g>
<g><path style="opacity:1" fill="#8f3f02" d="M 128.5,210.5 C 128.5,212.5 128.5,214.5 128.5,216.5C 127.5,216.5 126.5,216.5 125.5,216.5C 121.247,214.552 119.58,211.219 120.5,206.5C 121.873,206.343 123.207,206.51 124.5,207C 125.705,208.376 127.038,209.542 128.5,210.5 Z"/></g>
<g><path style="opacity:1" fill="#673009" d="M 183.5,216.5 C 180.148,217.707 176.814,217.707 173.5,216.5C 171.73,214.887 170.564,212.887 170,210.5C 168.951,211.517 167.784,211.684 166.5,211C 168.066,210.392 169.4,209.558 170.5,208.5C 177.74,205.778 178.073,206.278 171.5,210C 175.287,210.16 178.954,210.826 182.5,212C 184.036,213.468 184.37,214.968 183.5,216.5 Z"/></g>
<g><path style="opacity:1" fill="#bf8852" d="M 167.5,199.5 C 167.336,202.187 167.503,204.854 168,207.5C 168.671,208.252 169.504,208.586 170.5,208.5C 169.4,209.558 168.066,210.392 166.5,211C 167.784,211.684 168.951,211.517 170,210.5C 170.564,212.887 171.73,214.887 173.5,216.5C 172.761,216.369 172.094,216.536 171.5,217C 173.563,218.572 174.229,220.405 173.5,222.5C 170.033,223.788 166.7,223.788 163.5,222.5C 166.187,222.664 168.854,222.497 171.5,222C 172.451,221.282 172.617,220.449 172,219.5C 168.702,215.835 164.535,214.502 159.5,215.5C 159.5,216.5 159.5,217.5 159.5,218.5C 158.41,216.237 157.077,216.07 155.5,218C 157.751,218.748 159.084,220.248 159.5,222.5C 156.271,219.075 152.271,217.742 147.5,218.5C 147.688,221.206 148.688,223.539 150.5,225.5C 148.744,226.552 148.077,228.219 148.5,230.5C 145.078,230.994 143.411,230.661 143.5,229.5C 144.833,229.5 146.167,229.5 147.5,229.5C 146.72,224.714 144.054,221.381 139.5,219.5C 143.154,218.621 146.821,217.787 150.5,217C 148.866,216.506 147.199,216.34 145.5,216.5C 145.657,215.127 145.49,213.793 145,212.5C 144.535,213.931 143.701,215.097 142.5,216C 142.833,216.333 143.167,216.667 143.5,217C 141.833,217.667 140.167,217.667 138.5,217C 142.957,214.921 144.957,211.421 144.5,206.5C 140.474,206.677 137.641,208.677 136,212.5C 135.371,216.871 135.537,221.204 136.5,225.5C 134.953,223.193 134.287,220.527 134.5,217.5C 133.957,210.71 136.957,206.377 143.5,204.5C 145.069,205.714 145.902,207.381 146,209.5C 146.278,208.584 146.778,207.918 147.5,207.5C 147.167,210.167 146.833,212.833 146.5,215.5C 152.793,214.607 155.46,210.941 154.5,204.5C 153.167,204.5 151.833,204.5 150.5,204.5C 151.514,203.326 152.847,202.66 154.5,202.5C 155.379,206.248 155.712,209.915 155.5,213.5C 156.321,210.553 156.821,207.553 157,204.5C 157.748,202.249 159.248,200.916 161.5,200.5C 158.075,203.729 156.742,207.729 157.5,212.5C 163.543,211.448 165.877,207.781 164.5,201.5C 165.222,201.918 165.722,202.584 166,203.5C 166.21,201.942 166.71,200.609 167.5,199.5 Z"/></g>
<g><path style="opacity:1" fill="#763402" d="M 150.5,204.5 C 151.833,204.5 153.167,204.5 154.5,204.5C 155.46,210.941 152.793,214.607 146.5,215.5C 146.833,212.833 147.167,210.167 147.5,207.5C 148.833,206.833 149.833,205.833 150.5,204.5 Z"/></g>
<g><path style="opacity:1" fill="#713102" d="M 161.5,200.5 C 162.609,200.557 163.609,200.89 164.5,201.5C 165.877,207.781 163.543,211.448 157.5,212.5C 156.742,207.729 158.075,203.729 161.5,200.5 Z"/></g>
<g><path style="opacity:1" fill="#ead7ab" d="M 238.5,155.5 C 238.5,156.167 238.5,156.833 238.5,157.5C 225.615,202.055 196.615,229.388 151.5,239.5C 149.5,239.5 147.5,239.5 145.5,239.5C 144.448,239.649 143.448,239.483 142.5,239C 143.737,238.768 144.737,238.268 145.5,237.5C 151.247,236.784 156.914,235.617 162.5,234C 201.272,221.615 225.938,195.782 236.5,156.5C 237.268,155.737 237.768,154.737 238,153.5C 238.464,154.094 238.631,154.761 238.5,155.5 Z"/></g>
<g><path style="opacity:1" fill="#632a01" d="M 163.5,222.5 C 162.5,220.833 161.167,219.5 159.5,218.5C 159.5,217.5 159.5,216.5 159.5,215.5C 164.535,214.502 168.702,215.835 172,219.5C 172.617,220.449 172.451,221.282 171.5,222C 168.854,222.497 166.187,222.664 163.5,222.5 Z"/></g>
<g><path style="opacity:1" fill="#bd7833" d="M 117.5,210.5 C 118.283,212.343 118.95,214.343 119.5,216.5C 121.636,217.793 123.636,217.793 125.5,216.5C 126.5,216.5 127.5,216.5 128.5,216.5C 128.5,214.5 128.5,212.5 128.5,210.5C 131.153,216.082 130.986,221.749 128,227.5C 127.329,228.252 126.496,228.586 125.5,228.5C 125.082,229.222 124.416,229.722 123.5,230C 120.854,230.497 118.187,230.664 115.5,230.5C 115.421,229.07 115.754,227.736 116.5,226.5C 116.043,225.702 115.376,225.369 114.5,225.5C 115.695,223.249 116.695,220.915 117.5,218.5C 114.754,217.749 112.087,216.749 109.5,215.5C 111.099,215.768 112.432,215.434 113.5,214.5C 114.708,215.234 116.041,215.567 117.5,215.5C 117.5,213.833 117.5,212.167 117.5,210.5 Z"/></g>
<g><path style="opacity:1" fill="#d4ac84" d="M 173.5,216.5 C 176.814,217.707 180.148,217.707 183.5,216.5C 182.054,217.94 180.221,218.607 178,218.5C 175.992,218.693 174.492,218.026 173.5,216.5 Z"/></g>
<g><path style="opacity:1" fill="#944203" d="M 117.5,218.5 C 116.695,220.915 115.695,223.249 114.5,225.5C 113.508,225.328 112.842,225.662 112.5,226.5C 109.833,226.5 107.167,226.5 104.5,226.5C 104.544,222.91 106.211,220.41 109.5,219C 112.146,218.503 114.813,218.336 117.5,218.5 Z"/></g>
<g><path style="opacity:1" fill="#843c02" d="M 125.5,228.5 C 122.873,229.092 120.206,229.425 117.5,229.5C 117.808,222.532 121.475,219.532 128.5,220.5C 128.606,223.615 127.606,226.281 125.5,228.5 Z"/></g>
<g><path style="opacity:1" fill="#ba5b0f" d="M 156.5,200.5 C 156.167,201.5 155.5,202.167 154.5,202.5C 152.847,202.66 151.514,203.326 150.5,204.5C 149.833,205.833 148.833,206.833 147.5,207.5C 146.778,207.918 146.278,208.584 146,209.5C 145.902,207.381 145.069,205.714 143.5,204.5C 136.957,206.377 133.957,210.71 134.5,217.5C 134.287,220.527 134.953,223.193 136.5,225.5C 137.833,226.167 138.833,227.167 139.5,228.5C 138.71,229.794 137.71,230.961 136.5,232C 130.167,232.333 123.833,232.667 117.5,233C 122.453,233.995 127.453,234.662 132.5,235C 131.833,235.667 131.167,236.333 130.5,237C 134.152,237.499 137.818,237.665 141.5,237.5C 135.69,238.49 129.69,238.823 123.5,238.5C 116.451,237.486 109.451,235.82 102.5,233.5C 102.977,232.522 103.643,231.689 104.5,231C 103.167,230.333 101.833,229.667 100.5,229C 103.833,228.667 107.167,228.333 110.5,228C 111.416,227.722 112.082,227.222 112.5,226.5C 112.842,225.662 113.508,225.328 114.5,225.5C 115.376,225.369 116.043,225.702 116.5,226.5C 115.754,227.736 115.421,229.07 115.5,230.5C 118.187,230.664 120.854,230.497 123.5,230C 124.416,229.722 125.082,229.222 125.5,228.5C 126.496,228.586 127.329,228.252 128,227.5C 130.986,221.749 131.153,216.082 128.5,210.5C 128.141,208.629 127.141,207.129 125.5,206C 125.957,205.586 126.291,205.086 126.5,204.5C 136.616,203.911 146.616,202.577 156.5,200.5 Z"/></g>
<g><path style="opacity:1" fill="#cd6f1b" d="M 44.5,197.5 C 49.4729,203.14 54.8063,208.473 60.5,213.5C 64.1886,217.187 68.1886,220.52 72.5,223.5C 70.5509,225.297 68.8842,227.297 67.5,229.5C 63.5,226.5 59.5,223.5 55.5,220.5C 49.1328,215.463 43.7995,209.463 39.5,202.5C 41.0063,200.599 42.6729,198.932 44.5,197.5 Z"/></g>
<g><path style="opacity:1" fill="#6a2e02" d="M 159.5,222.5 C 159.539,223.583 159.873,224.583 160.5,225.5C 157.163,226.666 153.83,226.666 150.5,225.5C 148.688,223.539 147.688,221.206 147.5,218.5C 152.271,217.742 156.271,219.075 159.5,222.5 Z"/></g>
<g><path style="opacity:1" fill="#cf7924" d="M 100.5,212.5 C 100.918,213.222 101.584,213.722 102.5,214C 97.6503,214.585 93.9836,216.919 91.5,221C 97.74,224.115 102.407,222.615 105.5,216.5C 106.689,215.571 108.022,215.238 109.5,215.5C 112.087,216.749 114.754,217.749 117.5,218.5C 114.813,218.336 112.146,218.503 109.5,219C 106.211,220.41 104.544,222.91 104.5,226.5C 107.167,226.5 109.833,226.5 112.5,226.5C 112.082,227.222 111.416,227.722 110.5,228C 107.167,228.333 103.833,228.667 100.5,229C 101.833,229.667 103.167,230.333 104.5,231C 103.643,231.689 102.977,232.522 102.5,233.5C 109.451,235.82 116.451,237.486 123.5,238.5C 124.167,239.167 124.833,239.833 125.5,240.5C 119.459,240.156 113.459,239.489 107.5,238.5C 100.919,236.194 94.2522,233.86 87.5,231.5C 84.6821,230.844 83.0154,229.011 82.5,226C 79.1019,224.643 76.1019,222.81 73.5,220.5C 74.9778,220.762 76.3112,220.429 77.5,219.5C 75.731,217.443 73.731,215.61 71.5,214C 73.5029,214.419 75.5029,215.253 77.5,216.5C 78.1818,215.757 78.8485,215.091 79.5,214.5C 80.0577,215.79 81.0577,216.623 82.5,217C 89.1498,218.531 93.1498,216.365 94.5,210.5C 96.323,211.747 98.323,212.414 100.5,212.5 Z"/></g>
<g><path style="opacity:1" fill="#793704" d="M 143.5,229.5 C 142.432,228.566 141.099,228.232 139.5,228.5C 138.833,227.167 137.833,226.167 136.5,225.5C 135.537,221.204 135.371,216.871 136,212.5C 137.641,208.677 140.474,206.677 144.5,206.5C 144.957,211.421 142.957,214.921 138.5,217C 140.167,217.667 141.833,217.667 143.5,217C 143.167,216.667 142.833,216.333 142.5,216C 143.701,215.097 144.535,213.931 145,212.5C 145.49,213.793 145.657,215.127 145.5,216.5C 147.199,216.34 148.866,216.506 150.5,217C 146.821,217.787 143.154,218.621 139.5,219.5C 144.054,221.381 146.72,224.714 147.5,229.5C 146.167,229.5 144.833,229.5 143.5,229.5 Z"/></g>
<g><path style="opacity:1" fill="#b1550a" d="M 61.5,212.5 C 65.4714,215.156 69.4714,217.823 73.5,220.5C 76.1019,222.81 79.1019,224.643 82.5,226C 83.0154,229.011 84.6821,230.844 87.5,231.5C 85.66,233.168 83.66,234.668 81.5,236C 82.056,236.383 82.3893,236.883 82.5,237.5C 77.3682,235.1 72.3682,232.434 67.5,229.5C 68.8842,227.297 70.5509,225.297 72.5,223.5C 68.1886,220.52 64.1886,217.187 60.5,213.5C 61.1667,213.5 61.5,213.167 61.5,212.5 Z"/></g>
<g><path style="opacity:1" fill="#c19265" d="M 159.5,222.5 C 161.213,223.635 161.88,225.302 161.5,227.5C 159.658,227.723 157.825,228.057 156,228.5C 153.601,228.387 151.768,227.387 150.5,225.5C 153.83,226.666 157.163,226.666 160.5,225.5C 159.873,224.583 159.539,223.583 159.5,222.5 Z"/></g>
<g><path style="opacity:1" fill="#fbfafa" d="M 29.5,191.5 C 29.8333,192.167 30.1667,192.833 30.5,193.5C 36.5168,203.841 44.1835,212.841 53.5,220.5C 60.4722,226.651 67.8055,232.317 75.5,237.5C 74.3227,242.543 72.9893,247.543 71.5,252.5C 69.6674,259.322 67.6674,265.988 65.5,272.5C 63.3926,271.532 61.0593,271.198 58.5,271.5C 51.8333,271.5 45.1667,271.5 38.5,271.5C 38.5,264.833 38.5,258.167 38.5,251.5C 45.1667,251.5 51.8333,251.5 58.5,251.5C 58.5,244.833 58.5,238.167 58.5,231.5C 51.8333,231.5 45.1667,231.5 38.5,231.5C 38.5,224.833 38.5,218.167 38.5,211.5C 30.8333,211.5 23.1667,211.5 15.5,211.5C 15.5,204.833 15.5,198.167 15.5,191.5C 20.1667,191.5 24.8333,191.5 29.5,191.5 Z"/></g>
<g><path style="opacity:1" fill="#994505" d="M 87.5,231.5 C 94.2522,233.86 100.919,236.194 107.5,238.5C 103.945,239.054 101.612,241.054 100.5,244.5C 94.1092,242.93 88.1092,240.596 82.5,237.5C 82.3893,236.883 82.056,236.383 81.5,236C 83.66,234.668 85.66,233.168 87.5,231.5 Z"/></g>
<g><path style="opacity:1" fill="#e4b360" d="M 141.5,237.5 C 142.833,237.5 144.167,237.5 145.5,237.5C 144.737,238.268 143.737,238.768 142.5,239C 143.448,239.483 144.448,239.649 145.5,239.5C 139.021,240.491 132.354,240.824 125.5,240.5C 124.833,239.833 124.167,239.167 123.5,238.5C 129.69,238.823 135.69,238.49 141.5,237.5 Z"/></g>
<g><path style="opacity:1" fill="#7d3702" d="M 107.5,238.5 C 113.459,239.489 119.459,240.156 125.5,240.5C 132.354,240.824 139.021,240.491 145.5,239.5C 147.5,239.5 149.5,239.5 151.5,239.5C 148.146,242.188 145.146,245.188 142.5,248.5C 128.23,249.372 114.23,248.039 100.5,244.5C 101.612,241.054 103.945,239.054 107.5,238.5 Z"/></g>
<g><path style="opacity:1" fill="#8f0605" d="M 86.5,241.5 C 91.8372,243.72 97.1705,245.72 102.5,247.5C 109.559,252.195 117.226,255.529 125.5,257.5C 125.057,253.471 126.891,251.471 131,251.5C 131.383,252.056 131.883,252.389 132.5,252.5C 133.167,254.833 133.833,257.167 134.5,259.5C 131.653,258.461 129.32,259.128 127.5,261.5C 126.022,262.448 125.022,263.781 124.5,265.5C 124.586,264.504 124.252,263.671 123.5,263C 110.92,256.875 98.2538,251.042 85.5,245.5C 85.4326,244.041 85.7659,242.708 86.5,241.5 Z"/></g>
<g><path style="opacity:1" fill="#c8b8b8" d="M 82.5,239.5 C 83.8333,240.167 85.1667,240.833 86.5,241.5C 85.7659,242.708 85.4326,244.041 85.5,245.5C 84.4336,247.701 83.767,250.035 83.5,252.5C 83.0113,253.995 82.3446,255.329 81.5,256.5C 80.5,256.5 79.5,256.5 78.5,256.5C 78.5,255.833 78.5,255.167 78.5,254.5C 80.591,249.809 81.9244,244.809 82.5,239.5 Z"/></g>
<g><path style="opacity:1" fill="#ac0e0a" d="M 75.5,237.5 C 77.921,237.878 80.2543,238.545 82.5,239.5C 81.9244,244.809 80.591,249.809 78.5,254.5C 76.2543,253.545 73.921,252.878 71.5,252.5C 72.9893,247.543 74.3227,242.543 75.5,237.5 Z"/></g>
<g><path style="opacity:1" fill="#a00605" d="M 178.5,241.5 C 179.167,244.167 179.833,246.833 180.5,249.5C 166.42,252.853 152.42,256.52 138.5,260.5C 137.5,257.167 136.5,253.833 135.5,250.5C 150.416,250.184 164.75,247.184 178.5,241.5 Z"/></g>
<g><path style="opacity:1" fill="#ad110c" d="M 189.5,238.5 C 190.677,243.543 192.011,248.543 193.5,253.5C 190.933,253.721 188.599,254.388 186.5,255.5C 184.694,250.637 183.028,245.637 181.5,240.5C 183.519,239.067 185.686,237.733 188,236.5C 188.278,237.416 188.778,238.082 189.5,238.5 Z"/></g>
<g><path style="opacity:1" fill="#7d0905" d="M 102.5,247.5 C 112.386,249.592 122.386,250.592 132.5,250.5C 132.5,251.167 132.5,251.833 132.5,252.5C 131.883,252.389 131.383,252.056 131,251.5C 126.891,251.471 125.057,253.471 125.5,257.5C 117.226,255.529 109.559,252.195 102.5,247.5 Z"/></g>
<g><path style="opacity:1" fill="#a60103" d="M 85.5,245.5 C 98.2538,251.042 110.92,256.875 123.5,263C 124.252,263.671 124.586,264.504 124.5,265.5C 124.279,268.067 123.612,270.401 122.5,272.5C 122.631,271.624 122.298,270.957 121.5,270.5C 109.043,263.937 96.3762,257.937 83.5,252.5C 83.767,250.035 84.4336,247.701 85.5,245.5 Z"/></g>
<g><path style="opacity:1" fill="#fdfcfc" d="M 217.5,214.5 C 218.489,219.975 218.822,225.642 218.5,231.5C 211.833,231.5 205.167,231.5 198.5,231.5C 198.5,238.167 198.5,244.833 198.5,251.5C 205.167,251.5 211.833,251.5 218.5,251.5C 218.5,258.167 218.5,264.833 218.5,271.5C 211.833,271.5 205.167,271.5 198.5,271.5C 196.833,265.5 195.167,259.5 193.5,253.5C 192.011,248.543 190.677,243.543 189.5,238.5C 189.281,237.325 189.614,236.325 190.5,235.5C 200.474,229.688 209.474,222.688 217.5,214.5 Z"/></g>
<g><path style="opacity:1" fill="#b90304" d="M 180.5,249.5 C 181.697,253.095 182.697,256.761 183.5,260.5C 170.028,263.368 156.695,266.868 143.5,271C 142.748,271.671 142.414,272.504 142.5,273.5C 140.797,269.383 139.463,265.05 138.5,260.5C 152.42,256.52 166.42,252.853 180.5,249.5 Z"/></g>
<g><path style="opacity:1" fill="#bf0204" d="M 83.5,252.5 C 96.3762,257.937 109.043,263.937 121.5,270.5C 122.298,270.957 122.631,271.624 122.5,272.5C 122.101,276.116 121.101,279.45 119.5,282.5C 106.906,275.37 93.9062,269.037 80.5,263.5C 80.9926,261.194 81.3259,258.861 81.5,256.5C 82.3446,255.329 83.0113,253.995 83.5,252.5 Z"/></g>
<g><path style="opacity:1" fill="#af0f0a" d="M 134.5,259.5 C 135.656,263.123 136.656,266.789 137.5,270.5C 135.244,269.562 132.91,269.562 130.5,270.5C 130.663,272.857 130.497,275.19 130,277.5C 128.532,275.964 127.032,275.63 125.5,276.5C 126.112,273.223 127.112,270.056 128.5,267C 127.767,265.234 127.433,263.401 127.5,261.5C 129.32,259.128 131.653,258.461 134.5,259.5 Z"/></g>
<g><path style="opacity:1" fill="#d50306" d="M 80.5,263.5 C 93.9062,269.037 106.906,275.37 119.5,282.5C 119.483,284.565 119.15,286.565 118.5,288.5C 117.322,292.88 115.988,297.213 114.5,301.5C 102.048,295.77 90.0481,289.936 78.5,284C 77.2068,283.51 75.8734,283.343 74.5,283.5C 76.3326,276.678 78.3326,270.012 80.5,263.5 Z"/></g>
<g><path style="opacity:1" fill="#d40306" d="M 183.5,260.5 C 185.83,268.484 188.163,276.484 190.5,284.5C 176.403,287.754 162.403,291.421 148.5,295.5C 147.637,293.579 146.971,291.579 146.5,289.5C 144.963,284.221 143.629,278.888 142.5,273.5C 142.414,272.504 142.748,271.671 143.5,271C 156.695,266.868 170.028,263.368 183.5,260.5 Z"/></g>
<g><path style="opacity:1" fill="#dccbcb" d="M 132.5,250.5 C 133.5,250.5 134.5,250.5 135.5,250.5C 136.5,253.833 137.5,257.167 138.5,260.5C 139.463,265.05 140.797,269.383 142.5,273.5C 143.629,278.888 144.963,284.221 146.5,289.5C 145.348,288.375 144.348,288.375 143.5,289.5C 141.13,283.385 139.13,277.051 137.5,270.5C 136.656,266.789 135.656,263.123 134.5,259.5C 133.833,257.167 133.167,254.833 132.5,252.5C 132.5,251.833 132.5,251.167 132.5,250.5 Z"/></g>
<g><path style="opacity:1" fill="#da110e" d="M 71.5,252.5 C 73.921,252.878 76.2543,253.545 78.5,254.5C 78.5,255.167 78.5,255.833 78.5,256.5C 73.6305,273.109 68.9638,289.775 64.5,306.5C 61.4922,305.363 59.4922,303.363 58.5,300.5C 60.8333,291.167 63.1667,281.833 65.5,272.5C 67.6674,265.988 69.6674,259.322 71.5,252.5 Z"/></g>
<g><path style="opacity:1" fill="#cdbbbb" d="M 127.5,261.5 C 127.433,263.401 127.767,265.234 128.5,267C 127.112,270.056 126.112,273.223 125.5,276.5C 124.458,280.697 123.125,284.697 121.5,288.5C 120.652,287.375 119.652,287.375 118.5,288.5C 119.15,286.565 119.483,284.565 119.5,282.5C 121.101,279.45 122.101,276.116 122.5,272.5C 123.612,270.401 124.279,268.067 124.5,265.5C 125.022,263.781 126.022,262.448 127.5,261.5 Z"/></g>
<g><path style="opacity:1" fill="#d6130f" d="M 193.5,253.5 C 195.167,259.5 196.833,265.5 198.5,271.5C 204.162,291.488 209.829,311.488 215.5,331.5C 214.767,332.087 213.767,332.087 212.5,331.5C 209.599,330.208 207.266,328.208 205.5,325.5C 198.846,302.213 192.512,278.879 186.5,255.5C 188.599,254.388 190.933,253.721 193.5,253.5 Z"/></g>
<g><path style="opacity:1" fill="#db0709" d="M 74.5,283.5 C 75.8734,283.343 77.2068,283.51 78.5,284C 90.0481,289.936 102.048,295.77 114.5,301.5C 111.493,313.191 108.327,324.858 105,336.5C 100.085,327.668 94.9184,319.001 89.5,310.5C 85.1085,312.355 81.1085,314.689 77.5,317.5C 72.8501,319.804 68.1835,322.137 63.5,324.5C 66.9632,310.777 70.6299,297.111 74.5,283.5 Z"/></g>
<g><path style="opacity:1" fill="#de0206" d="M 190.5,284.5 C 192.037,289.779 193.371,295.112 194.5,300.5C 194.64,302.124 193.973,303.29 192.5,304C 179.562,307.814 166.562,311.314 153.5,314.5C 151.677,308.209 150.011,301.876 148.5,295.5C 162.403,291.421 176.403,287.754 190.5,284.5 Z"/></g>
<g><path style="opacity:1" fill="#d5120f" d="M 137.5,270.5 C 139.13,277.051 141.13,283.385 143.5,289.5C 147.695,306.612 152.362,323.612 157.5,340.5C 155.667,343.5 153.833,346.5 152,349.5C 145.635,326.697 138.968,304.03 132,281.5C 127.188,298.099 122.688,314.766 118.5,331.5C 116.225,337.58 114.392,343.913 113,350.5C 110.777,347.221 108.943,343.721 107.5,340C 112.562,322.917 117.228,305.751 121.5,288.5C 123.125,284.697 124.458,280.697 125.5,276.5C 127.032,275.63 128.532,275.964 130,277.5C 130.497,275.19 130.663,272.857 130.5,270.5C 132.91,269.562 135.244,269.562 137.5,270.5 Z"/></g>
<g><path style="opacity:1" fill="#f1e1e0" d="M 78.5,256.5 C 79.5,256.5 80.5,256.5 81.5,256.5C 81.3259,258.861 80.9926,261.194 80.5,263.5C 78.3326,270.012 76.3326,276.678 74.5,283.5C 70.6299,297.111 66.9632,310.777 63.5,324.5C 61.9272,326.836 60.5939,326.836 59.5,324.5C 61.1703,318.484 62.837,312.484 64.5,306.5C 68.9638,289.775 73.6305,273.109 78.5,256.5 Z"/></g>
<g><path style="opacity:1" fill="#eee0e0" d="M 181.5,240.5 C 183.028,245.637 184.694,250.637 186.5,255.5C 192.512,278.879 198.846,302.213 205.5,325.5C 207.266,328.208 209.599,330.208 212.5,331.5C 207.833,331.5 203.167,331.5 198.5,331.5C 198.5,328.833 198.5,326.167 198.5,323.5C 199.575,324.562 200.575,324.562 201.5,323.5C 199.3,315.675 196.966,308.008 194.5,300.5C 193.371,295.112 192.037,289.779 190.5,284.5C 188.163,276.484 185.83,268.484 183.5,260.5C 182.697,256.761 181.697,253.095 180.5,249.5C 179.833,246.833 179.167,244.167 178.5,241.5C 179.391,240.89 180.391,240.557 181.5,240.5 Z"/></g>
<g><path style="opacity:1" fill="#fbfafa" d="M 58.5,271.5 C 61.0593,271.198 63.3926,271.532 65.5,272.5C 63.1667,281.833 60.8333,291.167 58.5,300.5C 54.7377,310.88 51.9044,321.547 50,332.5C 52.2513,330.623 54.7513,329.123 57.5,328C 58.305,326.887 58.9717,325.721 59.5,324.5C 60.5939,326.836 61.9272,326.836 63.5,324.5C 68.1835,322.137 72.8501,319.804 77.5,317.5C 78.4861,321.97 78.8195,326.637 78.5,331.5C 71.8333,331.5 65.1667,331.5 58.5,331.5C 58.5,338.167 58.5,344.833 58.5,351.5C 51.8333,351.5 45.1667,351.5 38.5,351.5C 38.5,344.833 38.5,338.167 38.5,331.5C 30.8333,331.5 23.1667,331.5 15.5,331.5C 15.5,324.833 15.5,318.167 15.5,311.5C 23.1667,311.5 30.8333,311.5 38.5,311.5C 38.5,304.833 38.5,298.167 38.5,291.5C 45.1667,291.5 51.8333,291.5 58.5,291.5C 58.5,284.833 58.5,278.167 58.5,271.5 Z"/></g>
<g><path style="opacity:1" fill="#d60e0c" d="M 194.5,300.5 C 196.966,308.008 199.3,315.675 201.5,323.5C 200.575,324.562 199.575,324.562 198.5,323.5C 192.649,319.406 186.315,316.073 179.5,313.5C 178.132,311.221 176.298,310.554 174,311.5C 170.408,318.357 166.574,325.024 162.5,331.5C 161.737,333.368 160.737,335.035 159.5,336.5C 157.703,329.11 155.703,321.777 153.5,314.5C 166.562,311.314 179.562,307.814 192.5,304C 193.973,303.29 194.64,302.124 194.5,300.5 Z"/></g>
<g><path style="opacity:1" fill="#ede9e9" d="M 179.5,313.5 C 178.51,319.31 178.177,325.31 178.5,331.5C 173.167,331.5 167.833,331.5 162.5,331.5C 166.574,325.024 170.408,318.357 174,311.5C 176.298,310.554 178.132,311.221 179.5,313.5 Z"/></g>
<g><path style="opacity:1" fill="#c6140f" d="M 58.5,300.5 C 59.4922,303.363 61.4922,305.363 64.5,306.5C 62.837,312.484 61.1703,318.484 59.5,324.5C 58.9717,325.721 58.305,326.887 57.5,328C 54.7513,329.123 52.2513,330.623 50,332.5C 51.9044,321.547 54.7377,310.88 58.5,300.5 Z"/></g>
<g><path style="opacity:1" fill="#fdfdfd" d="M 78.5,331.5 C 85.1667,331.5 91.8333,331.5 98.5,331.5C 98.5,338.167 98.5,344.833 98.5,351.5C 98.5,344.833 98.5,338.167 98.5,331.5C 91.8333,331.5 85.1667,331.5 78.5,331.5 Z"/></g>
<g><path style="opacity:1" fill="#fdfdfd" d="M 118.5,331.5 C 125.167,331.5 131.833,331.5 138.5,331.5C 138.5,338.167 138.5,344.833 138.5,351.5C 131.833,351.5 125.167,351.5 118.5,351.5C 118.5,344.833 118.5,338.167 118.5,331.5 Z"/></g>
<g><path style="opacity:1" fill="#f0e9e9" d="M 143.5,289.5 C 144.348,288.375 145.348,288.375 146.5,289.5C 146.971,291.579 147.637,293.579 148.5,295.5C 150.011,301.876 151.677,308.209 153.5,314.5C 155.703,321.777 157.703,329.11 159.5,336.5C 158.608,341.438 158.274,346.438 158.5,351.5C 151.833,351.5 145.167,351.5 138.5,351.5C 138.5,344.833 138.5,338.167 138.5,331.5C 131.833,331.5 125.167,331.5 118.5,331.5C 122.688,314.766 127.188,298.099 132,281.5C 138.968,304.03 145.635,326.697 152,349.5C 153.833,346.5 155.667,343.5 157.5,340.5C 152.362,323.612 147.695,306.612 143.5,289.5 Z"/></g>
<g><path style="opacity:1" fill="#eee8e8" d="M 121.5,288.5 C 117.228,305.751 112.562,322.917 107.5,340C 108.943,343.721 110.777,347.221 113,350.5C 114.392,343.913 116.225,337.58 118.5,331.5C 118.5,338.167 118.5,344.833 118.5,351.5C 111.833,351.5 105.167,351.5 98.5,351.5C 98.5,344.833 98.5,338.167 98.5,331.5C 91.8333,331.5 85.1667,331.5 78.5,331.5C 78.8195,326.637 78.4861,321.97 77.5,317.5C 81.1085,314.689 85.1085,312.355 89.5,310.5C 94.9184,319.001 100.085,327.668 105,336.5C 108.327,324.858 111.493,313.191 114.5,301.5C 115.988,297.213 117.322,292.88 118.5,288.5C 119.652,287.375 120.652,287.375 121.5,288.5 Z"/></g>
<g><path style="opacity:1" fill="#f5f4f4" d="M 179.5,313.5 C 186.315,316.073 192.649,319.406 198.5,323.5C 198.5,326.167 198.5,328.833 198.5,331.5C 198.5,338.167 198.5,344.833 198.5,351.5C 185.167,351.5 171.833,351.5 158.5,351.5C 158.274,346.438 158.608,341.438 159.5,336.5C 160.737,335.035 161.737,333.368 162.5,331.5C 167.833,331.5 173.167,331.5 178.5,331.5C 178.177,325.31 178.51,319.31 179.5,313.5 Z"/></g>
<g><path style="opacity:1" fill="#f0f0f0" d="M 15.5,331.5 C 23.1667,331.5 30.8333,331.5 38.5,331.5C 38.5,338.167 38.5,344.833 38.5,351.5C 45.1667,351.5 51.8333,351.5 58.5,351.5C 58.5,344.833 58.5,338.167 58.5,331.5C 65.1667,331.5 71.8333,331.5 78.5,331.5C 78.5,338.167 78.5,344.833 78.5,351.5C 85.1667,351.5 91.8333,351.5 98.5,351.5C 105.167,351.5 111.833,351.5 118.5,351.5C 125.167,351.5 131.833,351.5 138.5,351.5C 145.167,351.5 151.833,351.5 158.5,351.5C 171.833,351.5 185.167,351.5 198.5,351.5C 205.167,351.5 211.833,351.5 218.5,351.5C 218.5,352.833 218.5,354.167 218.5,355.5C 145.5,355.5 72.5,355.5 -0.5,355.5C -0.5,354.167 -0.5,352.833 -0.5,351.5C 4.83333,351.5 10.1667,351.5 15.5,351.5C 15.5,344.833 15.5,338.167 15.5,331.5 Z"/></g>
</svg>
