<svg xmlns="http://www.w3.org/2000/svg" enable-background="new 0 0 24 24" viewBox="0 0 24 24" id="haskell"><path fill="#6766DB" d="M23.49 11.829H16.79c-.167 0-.322-.083-.415-.221l-1.799-2.67c-.104-.153-.114-.351-.027-.514s.256-.265.441-.265h8.5c.276 0 .5.224.5.5v2.67C23.99 11.605 23.767 11.829 23.49 11.829zM19.499 15.829c-.166 0-.322-.083-.415-.221l-1.799-2.67c-.104-.153-.114-.351-.027-.514s.256-.265.441-.265h5.8c.276 0 .5.224.5.5v2.669c0 .276-.224.5-.5.5L19.499 15.829z"></path><path fill="#110638" d="M0.5,20.5c-0.185,0-0.355-0.102-0.441-0.266c-0.087-0.163-0.076-0.361,0.027-0.515L5.307,12L0.086,4.28c-0.104-0.153-0.114-0.352-0.027-0.515C0.145,3.602,0.315,3.5,0.5,3.5h3.811c0.166,0,0.32,0.082,0.414,0.219l5.44,8c0.115,0.17,0.115,0.393,0,0.563l-5.44,7.999c-0.093,0.137-0.248,0.219-0.414,0.219L0.5,20.5z M4.311,19.999h0.01H4.311z M1.442,4.5l4.883,7.219c0.115,0.169,0.115,0.391,0,0.561L1.442,19.5l2.604-0.001L9.146,12L4.046,4.5H1.442z"></path><path fill="#110638" d="M6.161,20.5c-0.185,0-0.355-0.102-0.441-0.266c-0.087-0.163-0.077-0.361,0.027-0.515L10.966,12L5.748,4.28C5.644,4.127,5.633,3.929,5.72,3.766C5.807,3.602,5.977,3.5,6.162,3.5h3.84c0.166,0,0.322,0.083,0.415,0.22l10.79,15.999c0.104,0.153,0.114,0.351,0.027,0.515c-0.087,0.163-0.256,0.265-0.441,0.265h-4.05c-0.167,0-0.322-0.083-0.415-0.221l-2.972-4.423l-2.937,4.421c-0.093,0.139-0.249,0.223-0.417,0.223L6.161,20.5z M7.103,4.5l4.88,7.22c0.115,0.169,0.115,0.391,0,0.56L7.103,19.5l2.63-0.001l3.203-4.821c0.092-0.139,0.248-0.223,0.415-0.223c0,0,0.001,0,0.001,0c0.167,0,0.322,0.083,0.415,0.221l3.241,4.823h2.843L9.736,4.5H7.103z"></path></svg>